NotoSansThaiUI-CondensedSemiBold.ufo
<glyph name="uni02BC" format="2">
  <advance width="240"/>
  <unicode hex="02BC"/>
  <outline>
    <contour>
      <point x="196" y="714" type="line"/>
      <point x="66" y="714" type="line"/>
      <point x="62" y="646"/>
      <point x="44" y="518"/>
      <point x="28" y="444" type="curve"/>
      <point x="135" y="444" type="line"/>
      <point x="164" y="518"/>
      <point x="186" y="604"/>
      <point x="201" y="703" type="curve"/>
    </contour>
  </outline>
</glyph>
<glyph name="tildecomb" format="2">
  <unicode hex="0303"/>
  <anchor x="-90" y="511" name="_top"/>
  <outline>
    <contour>
      <point x="-120" y="755" type="curve"/>
      <point x="-191" y="755" type="line"/>
      <point x="-196" y="722"/>
      <point x="-203" y="703"/>
      <point x="-220" y="703" type="curve" smooth="yes"/>
      <point x="-262" y="703"/>
      <point x="-303" y="754"/>
      <point x="-355" y="754" type="curve" smooth="yes"/>
      <point x="-425" y="754"/>
      <point x="-438" y="667"/>
      <point x="-440" y="605" type="curve"/>
      <point x="-369" y="605" type="line"/>
      <point x="-366" y="641"/>
      <point x="-352" y="657"/>
      <point x="-339" y="657" type="curve" smooth="yes"/>
      <point x="-307" y="657"/>
      <point x="-254" y="606"/>
      <point x="-205" y="606" type="curve" smooth="yes"/>
      <point x="-158" y="606"/>
      <point x="-122" y="658"/>
    </contour>
  </outline>
</glyph>
<glyph name="macronbelowcomb" format="2">
  <unicode hex="0331"/>
  <anchor x="-52" y="0" name="_bottom"/>
  <outline>
    <contour>
      <point x="-120" y="-87" type="line"/>
      <point x="-391" y="-87" type="line"/>
      <point x="-391" y="-182" type="line"/>
      <point x="-120" y="-182" type="line"/>
    </contour>
  </outline>
</glyph>
<glyph name="koKai-thai" format="2">
  <advance width="516"/>
  <unicode hex="0E01"/>
  <note>
uni0E01
</note>
  <anchor x="457" y="0" name="bottom"/>
  <anchor x="443" y="505" name="top"/>
  <outline>
    <contour>
      <point x="57" y="0" type="line"/>
      <point x="187" y="0" type="line"/>
      <point x="187" y="168" type="line" smooth="yes"/>
      <point x="187" y="221"/>
      <point x="203" y="251"/>
      <point x="242" y="254" type="curve"/>
      <point x="251" y="314" type="line"/>
      <point x="183" y="354" type="line"/>
      <point x="185" y="390"/>
      <point x="205" y="418"/>
      <point x="251" y="418" type="curve" smooth="yes"/>
      <point x="301" y="418"/>
      <point x="326" y="387"/>
      <point x="326" y="323" type="curve" smooth="yes"/>
      <point x="326" y="0" type="line"/>
      <point x="457" y="0" type="line"/>
      <point x="457" y="331" type="line" smooth="yes"/>
      <point x="457" y="464"/>
      <point x="381" y="529"/>
      <point x="255" y="529" type="curve" smooth="yes"/>
      <point x="121" y="529"/>
      <point x="49" y="452"/>
      <point x="49" y="360" type="curve" smooth="yes"/>
      <point x="49" y="336" type="line"/>
      <point x="134" y="298" type="line"/>
      <point x="133" y="294" type="line"/>
      <point x="83" y="277"/>
      <point x="57" y="238"/>
      <point x="57" y="159" type="curve" smooth="yes"/>
    </contour>
  </outline>
</glyph>
<glyph name="khoKhai-thai" format="2">
  <advance width="491"/>
  <unicode hex="0E02"/>
  <note>
uni0E02
</note>
  <anchor x="416" y="0" name="bottom"/>
  <anchor x="432" y="505" name="top"/>
  <outline>
    <contour>
      <point x="244" y="-13" type="curve" smooth="yes"/>
      <point x="367" y="-13"/>
      <point x="432" y="51"/>
      <point x="432" y="175" type="curve" smooth="yes"/>
      <point x="432" y="517" type="line"/>
      <point x="303" y="517" type="line"/>
      <point x="303" y="178" type="line" smooth="yes"/>
      <point x="303" y="125"/>
      <point x="285" y="95"/>
      <point x="245" y="95" type="curve" smooth="yes"/>
      <point x="208" y="95"/>
      <point x="188" y="120"/>
      <point x="188" y="184" type="curve" smooth="yes"/>
      <point x="188" y="223" type="line" smooth="yes"/>
      <point x="188" y="270"/>
      <point x="200" y="288"/>
      <point x="214" y="318" type="curve" smooth="yes"/>
      <point x="229" y="349"/>
      <point x="238" y="377"/>
      <point x="238" y="415" type="curve" smooth="yes"/>
      <point x="238" y="482"/>
      <point x="211" y="524"/>
      <point x="138" y="524" type="curve" smooth="yes"/>
      <point x="110" y="524"/>
      <point x="70" y="518"/>
      <point x="39" y="499" type="curve"/>
      <point x="59" y="413" type="line"/>
      <point x="72" y="420"/>
      <point x="83" y="425"/>
      <point x="93" y="425" type="curve" smooth="yes"/>
      <point x="107" y="425"/>
      <point x="117" y="415"/>
      <point x="117" y="393" type="curve" smooth="yes"/>
      <point x="117" y="368"/>
      <point x="105" y="348"/>
      <point x="88" y="321" type="curve" smooth="yes"/>
      <point x="71" y="294"/>
      <point x="59" y="263"/>
      <point x="59" y="211" type="curve" smooth="yes"/>
      <point x="59" y="172" type="line" smooth="yes"/>
      <point x="59" y="51"/>
      <point x="121" y="-13"/>
    </contour>
  </outline>
</glyph>
<glyph name="khoKhuat-thai" format="2">
  <advance width="498"/>
  <unicode hex="0E03"/>
  <anchor x="417" y="0" name="bottom"/>
  <anchor x="439" y="505" name="top"/>
  <outline>
    <contour>
      <point x="249" y="-13" type="curve" smooth="yes"/>
      <point x="373" y="-13"/>
      <point x="439" y="51"/>
      <point x="439" y="175" type="curve" smooth="yes"/>
      <point x="439" y="517" type="line"/>
      <point x="310" y="517" type="line"/>
      <point x="310" y="178" type="line" smooth="yes"/>
      <point x="310" y="125"/>
      <point x="292" y="95"/>
      <point x="249" y="95" type="curve" smooth="yes"/>
      <point x="209" y="95"/>
      <point x="188" y="121"/>
      <point x="188" y="186" type="curve" smooth="yes"/>
      <point x="188" y="221" type="line" smooth="yes"/>
      <point x="188" y="279"/>
      <point x="205" y="297"/>
      <point x="225" y="332" type="curve" smooth="yes"/>
      <point x="248" y="372"/>
      <point x="256" y="395"/>
      <point x="256" y="455" type="curve" smooth="yes"/>
      <point x="256" y="517" type="line"/>
      <point x="188" y="517" type="line"/>
      <point x="174" y="481" type="line"/>
      <point x="165" y="471"/>
      <point x="155" y="467"/>
      <point x="147" y="467" type="curve" smooth="yes"/>
      <point x="131" y="467"/>
      <point x="124" y="482"/>
      <point x="124" y="517" type="curve"/>
      <point x="34" y="517" type="line"/>
      <point x="34" y="483" type="line" smooth="yes"/>
      <point x="34" y="421"/>
      <point x="62" y="387"/>
      <point x="102" y="387" type="curve" smooth="yes"/>
      <point x="113" y="387"/>
      <point x="124" y="391"/>
      <point x="134" y="398" type="curve"/>
      <point x="136" y="397" type="line"/>
      <point x="135" y="380"/>
      <point x="120" y="362"/>
      <point x="109" y="348" type="curve" smooth="yes"/>
      <point x="76" y="305"/>
      <point x="58" y="268"/>
      <point x="58" y="208" type="curve" smooth="yes"/>
      <point x="58" y="175" type="line" smooth="yes"/>
      <point x="58" y="55"/>
      <point x="119" y="-13"/>
    </contour>
  </outline>
</glyph>
<glyph name="khoKhwai-thai" format="2">
  <advance width="532"/>
  <unicode hex="0E04"/>
  <note>
uni0E04
</note>
  <anchor x="473" y="1" name="bottom"/>
  <anchor x="459" y="505" name="top"/>
  <outline>
    <contour>
      <point x="59" y="0" type="line"/>
      <point x="187" y="0" type="line"/>
      <point x="187" y="64" type="line" smooth="yes"/>
      <point x="187" y="127"/>
      <point x="204" y="180"/>
      <point x="280" y="180" type="curve" smooth="yes"/>
      <point x="297" y="180" type="line"/>
      <point x="297" y="288" type="line"/>
      <point x="280" y="288" type="line" smooth="yes"/>
      <point x="233" y="288"/>
      <point x="209" y="277"/>
      <point x="190" y="228" type="curve"/>
      <point x="187" y="229" type="line"/>
      <point x="187" y="310" type="line" smooth="yes"/>
      <point x="187" y="378"/>
      <point x="210" y="418"/>
      <point x="265" y="418" type="curve" smooth="yes"/>
      <point x="322" y="418"/>
      <point x="344" y="378"/>
      <point x="344" y="310" type="curve" smooth="yes"/>
      <point x="344" y="0" type="line"/>
      <point x="473" y="0" type="line"/>
      <point x="473" y="308" type="line" smooth="yes"/>
      <point x="473" y="451"/>
      <point x="412" y="529"/>
      <point x="267" y="529" type="curve" smooth="yes"/>
      <point x="123" y="529"/>
      <point x="59" y="451"/>
      <point x="59" y="308" type="curve" smooth="yes"/>
    </contour>
  </outline>
</glyph>
<glyph name="khoKhon-thai" format="2">
  <advance width="543"/>
  <unicode hex="0E05"/>
  <anchor x="483" y="1" name="bottom"/>
  <anchor x="469" y="505" name="top"/>
  <outline>
    <contour>
      <point x="59" y="0" type="line"/>
      <point x="187" y="0" type="line"/>
      <point x="187" y="64" type="line" smooth="yes"/>
      <point x="187" y="127"/>
      <point x="204" y="180"/>
      <point x="286" y="180" type="curve" smooth="yes"/>
      <point x="304" y="180" type="line"/>
      <point x="304" y="288" type="line"/>
      <point x="286" y="288" type="line" smooth="yes"/>
      <point x="233" y="288"/>
      <point x="209" y="277"/>
      <point x="189" y="228" type="curve"/>
      <point x="187" y="229" type="line"/>
      <point x="187" y="364" type="line" smooth="yes"/>
      <point x="187" y="404"/>
      <point x="199" y="417"/>
      <point x="216" y="417" type="curve" smooth="yes"/>
      <point x="234" y="417"/>
      <point x="245" y="403"/>
      <point x="248" y="370" type="curve"/>
      <point x="294" y="370" type="line"/>
      <point x="295" y="403"/>
      <point x="307" y="417"/>
      <point x="325" y="417" type="curve" smooth="yes"/>
      <point x="343" y="417"/>
      <point x="354" y="404"/>
      <point x="354" y="364" type="curve" smooth="yes"/>
      <point x="354" y="0" type="line"/>
      <point x="484" y="0" type="line"/>
      <point x="484" y="398" type="line" smooth="yes"/>
      <point x="484" y="487"/>
      <point x="438" y="529"/>
      <point x="367" y="529" type="curve" smooth="yes"/>
      <point x="320" y="529"/>
      <point x="284" y="510"/>
      <point x="273" y="470" type="curve"/>
      <point x="269" y="470" type="line"/>
      <point x="258" y="510"/>
      <point x="222" y="529"/>
      <point x="175" y="529" type="curve" smooth="yes"/>
      <point x="105" y="529"/>
      <point x="59" y="487"/>
      <point x="59" y="398" type="curve" smooth="yes"/>
    </contour>
  </outline>
</glyph>
<glyph name="khoRakhang-thai" format="2">
  <advance width="527"/>
  <unicode hex="0E06"/>
  <anchor x="458" y="0" name="bottom"/>
  <anchor x="468" y="505" name="top"/>
  <outline>
    <contour>
      <point x="324" y="-9" type="curve" smooth="yes"/>
      <point x="419" y="-9"/>
      <point x="468" y="58"/>
      <point x="468" y="180" type="curve" smooth="yes"/>
      <point x="468" y="517" type="line"/>
      <point x="338" y="517" type="line"/>
      <point x="338" y="210" type="line" smooth="yes"/>
      <point x="338" y="138"/>
      <point x="315" y="110"/>
      <point x="274" y="110" type="curve" smooth="yes"/>
      <point x="224" y="110"/>
      <point x="193" y="152"/>
      <point x="193" y="218" type="curve" smooth="yes"/>
      <point x="193" y="225" type="line" smooth="yes"/>
      <point x="193" y="276"/>
      <point x="210" y="293"/>
      <point x="232" y="332" type="curve" smooth="yes"/>
      <point x="258" y="377"/>
      <point x="265" y="402"/>
      <point x="265" y="455" type="curve" smooth="yes"/>
      <point x="265" y="517" type="line"/>
      <point x="192" y="517" type="line"/>
      <point x="179" y="481" type="line"/>
      <point x="170" y="471"/>
      <point x="160" y="467"/>
      <point x="151" y="467" type="curve" smooth="yes"/>
      <point x="135" y="467"/>
      <point x="129" y="482"/>
      <point x="129" y="517" type="curve"/>
      <point x="38" y="517" type="line"/>
      <point x="38" y="483" type="line" smooth="yes"/>
      <point x="38" y="421"/>
      <point x="66" y="387"/>
      <point x="106" y="387" type="curve" smooth="yes"/>
      <point x="117" y="387"/>
      <point x="128" y="391"/>
      <point x="138" y="398" type="curve"/>
      <point x="140" y="397" type="line"/>
      <point x="139" y="382"/>
      <point x="127" y="367"/>
      <point x="112" y="348" type="curve" smooth="yes"/>
      <point x="78" y="304"/>
      <point x="63" y="264"/>
      <point x="63" y="201" type="curve" smooth="yes"/>
      <point x="63" y="0" type="line"/>
      <point x="159" y="0" type="line"/>
      <point x="173" y="81" type="line"/>
      <point x="181" y="81" type="line"/>
      <point x="200" y="28"/>
      <point x="248" y="-9"/>
    </contour>
  </outline>
</glyph>
<glyph name="ngoNgu-thai" format="2">
  <advance width="467"/>
  <unicode hex="0E07"/>
  <note>
uni0E07
</note>
  <anchor x="355" y="0" name="bottom"/>
  <anchor x="390" y="505" name="top"/>
  <outline>
    <contour>
      <point x="131" y="0" type="line"/>
      <point x="197" y="0" type="line" smooth="yes"/>
      <point x="285" y="0"/>
      <point x="329" y="23"/>
      <point x="361" y="59" type="curve" smooth="yes"/>
      <point x="400" y="104"/>
      <point x="431" y="182"/>
      <point x="431" y="283" type="curve" smooth="yes"/>
      <point x="431" y="362"/>
      <point x="412" y="429"/>
      <point x="375" y="471" type="curve" smooth="yes"/>
      <point x="345" y="505"/>
      <point x="305" y="524"/>
      <point x="248" y="524" type="curve" smooth="yes"/>
      <point x="233" y="524"/>
      <point x="209" y="523"/>
      <point x="185" y="515" type="curve"/>
      <point x="208" y="410" type="line"/>
      <point x="215" y="413"/>
      <point x="222" y="414"/>
      <point x="230" y="414" type="curve" smooth="yes"/>
      <point x="273" y="414"/>
      <point x="299" y="366"/>
      <point x="299" y="279" type="curve" smooth="yes"/>
      <point x="299" y="228"/>
      <point x="290" y="177"/>
      <point x="271" y="143" type="curve" smooth="yes"/>
      <point x="260" y="123"/>
      <point x="247" y="112"/>
      <point x="232" y="112" type="curve" smooth="yes"/>
      <point x="228" y="112" type="line"/>
      <point x="136" y="517" type="line"/>
      <point x="5" y="517" type="line"/>
    </contour>
  </outline>
</glyph>
<glyph name="choChan-thai" format="2">
  <advance width="461"/>
  <unicode hex="0E08"/>
  <anchor x="379" y="0" name="bottom"/>
  <anchor x="384" y="505" name="top"/>
  <outline>
    <contour>
      <point x="91" y="0" type="line"/>
      <point x="200" y="0" type="line" smooth="yes"/>
      <point x="362" y="0"/>
      <point x="423" y="93"/>
      <point x="423" y="262" type="curve" smooth="yes"/>
      <point x="423" y="441"/>
      <point x="353" y="529"/>
      <point x="197" y="529" type="curve" smooth="yes"/>
      <point x="125" y="529"/>
      <point x="72" y="510"/>
      <point x="36" y="489" type="curve"/>
      <point x="36" y="373" type="line"/>
      <point x="70" y="399"/>
      <point x="114" y="419"/>
      <point x="171" y="419" type="curve" smooth="yes"/>
      <point x="247" y="419"/>
      <point x="291" y="378"/>
      <point x="291" y="259" type="curve" smooth="yes"/>
      <point x="291" y="155"/>
      <point x="261" y="105"/>
      <point x="213" y="105" type="curve" smooth="yes"/>
      <point x="208" y="105" type="line"/>
      <point x="208" y="303" type="line"/>
      <point x="49" y="303" type="line"/>
      <point x="49" y="217" type="line"/>
      <point x="91" y="217" type="line"/>
    </contour>
  </outline>
</glyph>
<glyph name="choChing-thai" format="2">
  <advance width="511"/>
  <unicode hex="0E09"/>
  <anchor x="452" y="0" name="bottom"/>
  <anchor x="444" y="505" name="top"/>
  <outline>
    <contour>
      <point x="199" y="-9" type="curve" smooth="yes"/>
      <point x="269" y="-9"/>
      <point x="312" y="29"/>
      <point x="332" y="76" type="curve"/>
      <point x="339" y="76" type="line"/>
      <point x="354" y="0" type="line"/>
      <point x="452" y="0" type="line"/>
      <point x="452" y="307" type="line" smooth="yes"/>
      <point x="452" y="451"/>
      <point x="393" y="529"/>
      <point x="249" y="529" type="curve" smooth="yes"/>
      <point x="177" y="529"/>
      <point x="111" y="509"/>
      <point x="75" y="489" type="curve"/>
      <point x="75" y="373" type="line"/>
      <point x="111" y="398"/>
      <point x="161" y="419"/>
      <point x="219" y="419" type="curve" smooth="yes"/>
      <point x="283" y="419"/>
      <point x="322" y="391"/>
      <point x="322" y="303" type="curve" smooth="yes"/>
      <point x="322" y="228" type="line" smooth="yes"/>
      <point x="322" y="152"/>
      <point x="292" y="109"/>
      <point x="245" y="109" type="curve" smooth="yes"/>
      <point x="208" y="109"/>
      <point x="187" y="136"/>
      <point x="187" y="196" type="curve" smooth="yes"/>
      <point x="187" y="295" type="line"/>
      <point x="63" y="295" type="line"/>
      <point x="63" y="157" type="line" smooth="yes"/>
      <point x="63" y="40"/>
      <point x="111" y="-9"/>
    </contour>
  </outline>
</glyph>
<glyph name="choChang-thai" format="2">
  <advance width="496"/>
  <unicode hex="0E0A"/>
  <anchor x="419" y="0" name="bottom"/>
  <anchor x="450" y="503" name="top"/>
  <outline>
    <contour>
      <point x="252" y="-13" type="curve" smooth="yes"/>
      <point x="376" y="-13"/>
      <point x="441" y="51"/>
      <point x="441" y="175" type="curve" smooth="yes"/>
      <point x="441" y="273" type="line" smooth="yes"/>
      <point x="441" y="317"/>
      <point x="430" y="354"/>
      <point x="394" y="368" type="curve"/>
      <point x="394" y="371" type="line"/>
      <point x="435" y="389"/>
      <point x="451" y="440"/>
      <point x="451" y="517" type="curve"/>
      <point x="322" y="517" type="line"/>
      <point x="322" y="463"/>
      <point x="314" y="407"/>
      <point x="268" y="407" type="curve" smooth="yes"/>
      <point x="263" y="407" type="line"/>
      <point x="263" y="335" type="line"/>
      <point x="268" y="335" type="line" smooth="yes"/>
      <point x="301" y="335"/>
      <point x="312" y="310"/>
      <point x="312" y="272" type="curve" smooth="yes"/>
      <point x="312" y="178" type="line" smooth="yes"/>
      <point x="312" y="126"/>
      <point x="296" y="95"/>
      <point x="252" y="95" type="curve" smooth="yes"/>
      <point x="211" y="95"/>
      <point x="190" y="121"/>
      <point x="190" y="186" type="curve" smooth="yes"/>
      <point x="190" y="223" type="line" smooth="yes"/>
      <point x="190" y="270"/>
      <point x="200" y="288"/>
      <point x="214" y="318" type="curve" smooth="yes"/>
      <point x="229" y="349"/>
      <point x="238" y="377"/>
      <point x="238" y="415" type="curve" smooth="yes"/>
      <point x="238" y="482"/>
      <point x="211" y="524"/>
      <point x="138" y="524" type="curve" smooth="yes"/>
      <point x="110" y="524"/>
      <point x="70" y="518"/>
      <point x="39" y="499" type="curve"/>
      <point x="59" y="413" type="line"/>
      <point x="72" y="420"/>
      <point x="83" y="425"/>
      <point x="93" y="425" type="curve" smooth="yes"/>
      <point x="107" y="425"/>
      <point x="117" y="415"/>
      <point x="117" y="393" type="curve" smooth="yes"/>
      <point x="117" y="368"/>
      <point x="105" y="348"/>
      <point x="88" y="321" type="curve" smooth="yes"/>
      <point x="71" y="294"/>
      <point x="61" y="262"/>
      <point x="61" y="210" type="curve" smooth="yes"/>
      <point x="61" y="172" type="line" smooth="yes"/>
      <point x="61" y="52"/>
      <point x="126" y="-13"/>
    </contour>
  </outline>
</glyph>
<glyph name="soSo-thai" format="2">
  <advance width="499"/>
  <unicode hex="0E0B"/>
  <note>
uni0E0B
</note>
  <anchor x="422" y="0" name="bottom"/>
  <anchor x="452" y="504" name="top"/>
  <outline>
    <contour>
      <point x="252" y="-13" type="curve" smooth="yes"/>
      <point x="379" y="-13"/>
      <point x="444" y="52"/>
      <point x="444" y="175" type="curve" smooth="yes"/>
      <point x="444" y="269" type="line" smooth="yes"/>
      <point x="444" y="321"/>
      <point x="431" y="355"/>
      <point x="396" y="368" type="curve"/>
      <point x="396" y="371" type="line"/>
      <point x="438" y="391"/>
      <point x="454" y="440"/>
      <point x="454" y="517" type="curve"/>
      <point x="325" y="517" type="line"/>
      <point x="325" y="463"/>
      <point x="319" y="407"/>
      <point x="275" y="407" type="curve" smooth="yes"/>
      <point x="272" y="407" type="line"/>
      <point x="272" y="335" type="line"/>
      <point x="274" y="335" type="line" smooth="yes"/>
      <point x="303" y="335"/>
      <point x="315" y="310"/>
      <point x="315" y="272" type="curve" smooth="yes"/>
      <point x="315" y="178" type="line" smooth="yes"/>
      <point x="315" y="126"/>
      <point x="297" y="95"/>
      <point x="252" y="95" type="curve" smooth="yes"/>
      <point x="210" y="95"/>
      <point x="190" y="120"/>
      <point x="190" y="186" type="curve" smooth="yes"/>
      <point x="190" y="225" type="line" smooth="yes"/>
      <point x="190" y="279"/>
      <point x="206" y="297"/>
      <point x="225" y="332" type="curve" smooth="yes"/>
      <point x="248" y="373"/>
      <point x="251" y="395"/>
      <point x="251" y="455" type="curve" smooth="yes"/>
      <point x="251" y="517" type="line"/>
      <point x="188" y="517" type="line"/>
      <point x="175" y="481" type="line"/>
      <point x="166" y="471"/>
      <point x="156" y="467"/>
      <point x="147" y="467" type="curve" smooth="yes"/>
      <point x="131" y="467"/>
      <point x="125" y="482"/>
      <point x="125" y="517" type="curve"/>
      <point x="34" y="517" type="line"/>
      <point x="34" y="483" type="line" smooth="yes"/>
      <point x="34" y="421"/>
      <point x="62" y="387"/>
      <point x="102" y="387" type="curve" smooth="yes"/>
      <point x="113" y="387"/>
      <point x="124" y="391"/>
      <point x="134" y="398" type="curve"/>
      <point x="136" y="397" type="line"/>
      <point x="135" y="380"/>
      <point x="120" y="362"/>
      <point x="109" y="348" type="curve" smooth="yes"/>
      <point x="76" y="305"/>
      <point x="60" y="268"/>
      <point x="60" y="208" type="curve" smooth="yes"/>
      <point x="60" y="175" type="line" smooth="yes"/>
      <point x="60" y="55"/>
      <point x="123" y="-13"/>
    </contour>
  </outline>
</glyph>
<glyph name="choChoe-thai" format="2">
  <advance width="755"/>
  <unicode hex="0E0C"/>
  <anchor x="679" y="0" name="bottom"/>
  <anchor x="696" y="505" name="top"/>
  <outline>
    <contour>
      <point x="171" y="-9" type="curve" smooth="yes"/>
      <point x="202" y="-9"/>
      <point x="230" y="-3"/>
      <point x="250" y="9" type="curve"/>
      <point x="238" y="91" type="line"/>
      <point x="230" y="88"/>
      <point x="220" y="86"/>
      <point x="211" y="86" type="curve" smooth="yes"/>
      <point x="189" y="86"/>
      <point x="179" y="97"/>
      <point x="179" y="124" type="curve" smooth="yes"/>
      <point x="179" y="184" type="line" smooth="yes"/>
      <point x="179" y="236"/>
      <point x="198" y="255"/>
      <point x="237" y="256" type="curve"/>
      <point x="245" y="316" type="line"/>
      <point x="180" y="357" type="line"/>
      <point x="183" y="398"/>
      <point x="206" y="420"/>
      <point x="248" y="420" type="curve" smooth="yes"/>
      <point x="291" y="420"/>
      <point x="317" y="394"/>
      <point x="317" y="326" type="curve" smooth="yes"/>
      <point x="317" y="0" type="line"/>
      <point x="415" y="0" type="line"/>
      <point x="430" y="81" type="line"/>
      <point x="437" y="81" type="line"/>
      <point x="456" y="28"/>
      <point x="498" y="-9"/>
      <point x="567" y="-9" type="curve" smooth="yes"/>
      <point x="656" y="-9"/>
      <point x="696" y="48"/>
      <point x="696" y="166" type="curve" smooth="yes"/>
      <point x="696" y="517" type="line"/>
      <point x="566" y="517" type="line"/>
      <point x="566" y="196" type="line" smooth="yes"/>
      <point x="566" y="134"/>
      <point x="543" y="110"/>
      <point x="513" y="110" type="curve" smooth="yes"/>
      <point x="473" y="110"/>
      <point x="445" y="159"/>
      <point x="445" y="236" type="curve" smooth="yes"/>
      <point x="445" y="340" type="line" smooth="yes"/>
      <point x="445" y="465"/>
      <point x="373" y="529"/>
      <point x="249" y="529" type="curve" smooth="yes"/>
      <point x="117" y="529"/>
      <point x="46" y="454"/>
      <point x="46" y="360" type="curve" smooth="yes"/>
      <point x="46" y="336" type="line"/>
      <point x="132" y="298" type="line"/>
      <point x="131" y="294" type="line"/>
      <point x="81" y="277"/>
      <point x="53" y="247"/>
      <point x="53" y="173" type="curve" smooth="yes"/>
      <point x="53" y="110" type="line" smooth="yes"/>
      <point x="53" y="28"/>
      <point x="97" y="-9"/>
    </contour>
  </outline>
</glyph>
<glyph name="yoYing-thai" format="2">
  <advance width="762"/>
  <unicode hex="0E0D"/>
  <anchor x="669" y="-160" name="bottom"/>
  <anchor x="697" y="505" name="top"/>
  <outline>
    <contour>
      <point x="482" y="-183" type="curve" smooth="yes"/>
      <point x="623" y="-183"/>
      <point x="697" y="-104"/>
      <point x="697" y="62" type="curve" smooth="yes"/>
      <point x="697" y="517" type="line"/>
      <point x="567" y="517" type="line"/>
      <point x="567" y="251" type="line" smooth="yes"/>
      <point x="567" y="174"/>
      <point x="540" y="124"/>
      <point x="497" y="124" type="curve" smooth="yes"/>
      <point x="468" y="124"/>
      <point x="444" y="149"/>
      <point x="444" y="211" type="curve" smooth="yes"/>
      <point x="444" y="340" type="line" smooth="yes"/>
      <point x="444" y="466"/>
      <point x="372" y="529"/>
      <point x="249" y="529" type="curve" smooth="yes"/>
      <point x="117" y="529"/>
      <point x="46" y="455"/>
      <point x="46" y="360" type="curve" smooth="yes"/>
      <point x="46" y="336" type="line"/>
      <point x="132" y="298" type="line"/>
      <point x="131" y="294" type="line"/>
      <point x="81" y="277"/>
      <point x="53" y="247"/>
      <point x="53" y="173" type="curve" smooth="yes"/>
      <point x="53" y="110" type="line" smooth="yes"/>
      <point x="53" y="28"/>
      <point x="97" y="-9"/>
      <point x="171" y="-9" type="curve" smooth="yes"/>
      <point x="202" y="-9"/>
      <point x="230" y="-3"/>
      <point x="250" y="9" type="curve"/>
      <point x="238" y="91" type="line"/>
      <point x="230" y="88"/>
      <point x="220" y="86"/>
      <point x="211" y="86" type="curve" smooth="yes"/>
      <point x="189" y="86"/>
      <point x="179" y="97"/>
      <point x="179" y="124" type="curve" smooth="yes"/>
      <point x="179" y="184" type="line" smooth="yes"/>
      <point x="179" y="236"/>
      <point x="198" y="255"/>
      <point x="237" y="256" type="curve"/>
      <point x="245" y="316" type="line"/>
      <point x="180" y="357" type="line"/>
      <point x="183" y="399"/>
      <point x="209" y="420"/>
      <point x="247" y="420" type="curve" smooth="yes"/>
      <point x="287" y="420"/>
      <point x="316" y="397"/>
      <point x="316" y="330" type="curve" smooth="yes"/>
      <point x="316" y="171" type="line" smooth="yes"/>
      <point x="316" y="55"/>
      <point x="369" y="6"/>
      <point x="450" y="6" type="curve" smooth="yes"/>
      <point x="510" y="6"/>
      <point x="545" y="35"/>
      <point x="565" y="71" type="curve"/>
      <point x="571" y="71" type="line"/>
      <point x="571" y="43" type="line" smooth="yes"/>
      <point x="571" y="-38"/>
      <point x="532" y="-73"/>
      <point x="462" y="-73" type="curve" smooth="yes"/>
      <point x="412" y="-73"/>
      <point x="367" y="-55"/>
      <point x="342" y="-34" type="curve"/>
      <point x="342" y="-151" type="line"/>
      <point x="383" y="-173"/>
      <point x="434" y="-183"/>
    </contour>
  </outline>
</glyph>
<glyph name="toPatak-thai" format="2">
  <advance width="525"/>
  <unicode hex="0E0F"/>
  <anchor x="466" y="-183" name="bottom"/>
  <anchor x="442" y="505" name="top"/>
  <outline>
    <contour>
      <point x="50" y="-199" type="line"/>
      <point x="152" y="-199" type="line"/>
      <point x="152" y="-195" type="line" smooth="yes"/>
      <point x="152" y="-173"/>
      <point x="158" y="-147"/>
      <point x="183" y="-147" type="curve" smooth="yes"/>
      <point x="207" y="-147"/>
      <point x="224" y="-172"/>
      <point x="233" y="-199" type="curve"/>
      <point x="263" y="-199" type="line"/>
      <point x="303" y="-150" type="line"/>
      <point x="357" y="-199" type="line"/>
      <point x="466" y="-199" type="line"/>
      <point x="466" y="331" type="line" smooth="yes"/>
      <point x="466" y="464"/>
      <point x="390" y="529"/>
      <point x="262" y="529" type="curve" smooth="yes"/>
      <point x="126" y="529"/>
      <point x="57" y="452"/>
      <point x="57" y="360" type="curve" smooth="yes"/>
      <point x="57" y="336" type="line"/>
      <point x="144" y="298" type="line"/>
      <point x="143" y="294" type="line"/>
      <point x="100" y="281"/>
      <point x="79" y="249"/>
      <point x="79" y="186" type="curve" smooth="yes"/>
      <point x="79" y="122" type="line" smooth="yes"/>
      <point x="79" y="99"/>
      <point x="72" y="88"/>
      <point x="54" y="88" type="curve" smooth="yes"/>
      <point x="47" y="88"/>
      <point x="41" y="90"/>
      <point x="34" y="93" type="curve"/>
      <point x="22" y="15" type="line"/>
      <point x="41" y="4"/>
      <point x="67" y="-4"/>
      <point x="99" y="-4" type="curve" smooth="yes"/>
      <point x="161" y="-4"/>
      <point x="206" y="26"/>
      <point x="206" y="107" type="curve" smooth="yes"/>
      <point x="206" y="181" type="line" smooth="yes"/>
      <point x="206" y="233"/>
      <point x="219" y="256"/>
      <point x="248" y="256" type="curve"/>
      <point x="256" y="316" type="line"/>
      <point x="191" y="354" type="line"/>
      <point x="193" y="390"/>
      <point x="213" y="418"/>
      <point x="260" y="418" type="curve" smooth="yes"/>
      <point x="310" y="418"/>
      <point x="335" y="387"/>
      <point x="335" y="323" type="curve" smooth="yes"/>
      <point x="335" y="-112" type="line"/>
      <point x="352" y="-107" type="line"/>
      <point x="292" y="-54" type="line"/>
      <point x="247" y="-103" type="line"/>
      <point x="227" y="-64"/>
      <point x="196" y="-43"/>
      <point x="153" y="-43" type="curve" smooth="yes"/>
      <point x="96" y="-43"/>
      <point x="50" y="-81"/>
      <point x="50" y="-167" type="curve" smooth="yes"/>
    </contour>
  </outline>
</glyph>
<glyph name="thoThan-thai" format="2">
  <advance width="470"/>
  <unicode hex="0E10"/>
  <anchor x="421" y="-183" name="bottom"/>
  <anchor x="395" y="505" name="top"/>
  <outline>
    <contour>
      <point x="93" y="0" type="line"/>
      <point x="202" y="0" type="line" smooth="yes"/>
      <point x="361" y="0"/>
      <point x="425" y="93"/>
      <point x="425" y="256" type="curve" smooth="yes"/>
      <point x="425" y="364"/>
      <point x="393" y="427"/>
      <point x="347" y="451" type="curve"/>
      <point x="329" y="509"/>
      <point x="273" y="529"/>
      <point x="200" y="529" type="curve" smooth="yes"/>
      <point x="127" y="529"/>
      <point x="74" y="510"/>
      <point x="38" y="489" type="curve"/>
      <point x="38" y="373" type="line"/>
      <point x="72" y="399"/>
      <point x="116" y="419"/>
      <point x="174" y="419" type="curve" smooth="yes"/>
      <point x="249" y="419"/>
      <point x="293" y="378"/>
      <point x="293" y="259" type="curve" smooth="yes"/>
      <point x="293" y="155"/>
      <point x="263" y="105"/>
      <point x="214" y="105" type="curve" smooth="yes"/>
      <point x="210" y="105" type="line"/>
      <point x="210" y="303" type="line"/>
      <point x="51" y="303" type="line"/>
      <point x="51" y="217" type="line"/>
      <point x="93" y="217" type="line"/>
    </contour>
    <contour>
      <point x="37" y="-199" type="line"/>
      <point x="131" y="-199" type="line"/>
      <point x="131" y="-195" type="line" smooth="yes"/>
      <point x="131" y="-173"/>
      <point x="136" y="-147"/>
      <point x="160" y="-147" type="curve" smooth="yes"/>
      <point x="184" y="-147"/>
      <point x="200" y="-172"/>
      <point x="210" y="-199" type="curve"/>
      <point x="233" y="-199" type="line"/>
      <point x="265" y="-151" type="line"/>
      <point x="311" y="-199" type="line"/>
      <point x="421" y="-199" type="line"/>
      <point x="421" y="-31" type="line"/>
      <point x="314" y="-31" type="line"/>
      <point x="314" y="-115" type="line"/>
      <point x="324" y="-110" type="line"/>
      <point x="264" y="-55" type="line"/>
      <point x="224" y="-106" type="line"/>
      <point x="200" y="-69"/>
      <point x="176" y="-45"/>
      <point x="132" y="-45" type="curve" smooth="yes"/>
      <point x="77" y="-45"/>
      <point x="37" y="-84"/>
      <point x="37" y="-170" type="curve" smooth="yes"/>
    </contour>
    <contour>
      <point x="347" y="415" type="line"/>
      <point x="423" y="439"/>
      <point x="449" y="492"/>
      <point x="449" y="550" type="curve"/>
      <point x="337" y="550" type="line"/>
      <point x="336" y="516"/>
      <point x="315" y="494"/>
      <point x="276" y="480" type="curve"/>
    </contour>
  </outline>
</glyph>
<glyph name="thoNangmontho-thai" format="2">
  <advance width="533"/>
  <unicode hex="0E11"/>
  <anchor x="475" y="0" name="bottom"/>
  <anchor x="455" y="505" name="top"/>
  <outline>
    <contour>
      <point x="68" y="0" type="line"/>
      <point x="199" y="0" type="line"/>
      <point x="199" y="200" type="line" smooth="yes"/>
      <point x="199" y="267"/>
      <point x="209" y="295"/>
      <point x="233" y="338" type="curve" smooth="yes"/>
      <point x="263" y="392"/>
      <point x="283" y="412"/>
      <point x="308" y="412" type="curve" smooth="yes"/>
      <point x="333" y="412"/>
      <point x="344" y="392"/>
      <point x="344" y="349" type="curve" smooth="yes"/>
      <point x="344" y="0" type="line"/>
      <point x="474" y="0" type="line"/>
      <point x="474" y="405" type="line" smooth="yes"/>
      <point x="474" y="481"/>
      <point x="437" y="526"/>
      <point x="370" y="526" type="curve" smooth="yes"/>
      <point x="314" y="526"/>
      <point x="274" y="496"/>
      <point x="249" y="446" type="curve"/>
      <point x="245" y="446" type="line"/>
      <point x="245" y="517" type="line"/>
      <point x="183" y="517" type="line"/>
      <point x="170" y="481" type="line"/>
      <point x="161" y="470"/>
      <point x="152" y="467"/>
      <point x="144" y="467" type="curve" smooth="yes"/>
      <point x="128" y="467"/>
      <point x="121" y="480"/>
      <point x="121" y="517" type="curve"/>
      <point x="34" y="517" type="line"/>
      <point x="34" y="483" type="line" smooth="yes"/>
      <point x="34" y="421"/>
      <point x="62" y="387"/>
      <point x="101" y="387" type="curve" smooth="yes"/>
      <point x="113" y="387"/>
      <point x="123" y="391"/>
      <point x="134" y="398" type="curve"/>
      <point x="136" y="397" type="line"/>
      <point x="135" y="382"/>
      <point x="131" y="380"/>
      <point x="107" y="344" type="curve" smooth="yes"/>
      <point x="74" y="295"/>
      <point x="68" y="260"/>
      <point x="68" y="198" type="curve" smooth="yes"/>
    </contour>
  </outline>
</glyph>
<glyph name="thoPhuthao-thai" format="2">
  <advance width="768"/>
  <unicode hex="0E12"/>
  <anchor x="700" y="0" name="bottom"/>
  <anchor x="717" y="505" name="top"/>
  <outline>
    <contour>
      <point x="225" y="-9" type="curve" smooth="yes"/>
      <point x="250" y="-9"/>
      <point x="269" y="-6"/>
      <point x="287" y="3" type="curve"/>
      <point x="274" y="101" type="line"/>
      <point x="266" y="98"/>
      <point x="257" y="95"/>
      <point x="246" y="95" type="curve" smooth="yes"/>
      <point x="189" y="95"/>
      <point x="174" y="154"/>
      <point x="174" y="267" type="curve" smooth="yes"/>
      <point x="174" y="379"/>
      <point x="187" y="416"/>
      <point x="211" y="416" type="curve" smooth="yes"/>
      <point x="223" y="416"/>
      <point x="235" y="406"/>
      <point x="238" y="370" type="curve"/>
      <point x="285" y="370" type="line"/>
      <point x="288" y="403"/>
      <point x="298" y="416"/>
      <point x="313" y="416" type="curve" smooth="yes"/>
      <point x="328" y="416"/>
      <point x="338" y="405"/>
      <point x="338" y="365" type="curve" smooth="yes"/>
      <point x="338" y="0" type="line"/>
      <point x="437" y="0" type="line"/>
      <point x="451" y="81" type="line"/>
      <point x="458" y="81" type="line"/>
      <point x="478" y="30"/>
      <point x="518" y="-9"/>
      <point x="589" y="-9" type="curve" smooth="yes"/>
      <point x="677" y="-9"/>
      <point x="717" y="48"/>
      <point x="717" y="166" type="curve" smooth="yes"/>
      <point x="717" y="517" type="line"/>
      <point x="587" y="517" type="line"/>
      <point x="587" y="196" type="line" smooth="yes"/>
      <point x="587" y="134"/>
      <point x="564" y="110"/>
      <point x="535" y="110" type="curve" smooth="yes"/>
      <point x="494" y="110"/>
      <point x="466" y="159"/>
      <point x="466" y="236" type="curve" smooth="yes"/>
      <point x="466" y="390" type="line" smooth="yes"/>
      <point x="466" y="478"/>
      <point x="429" y="526"/>
      <point x="359" y="526" type="curve" smooth="yes"/>
      <point x="322" y="526"/>
      <point x="282" y="513"/>
      <point x="266" y="467" type="curve"/>
      <point x="263" y="467" type="line"/>
      <point x="245" y="512"/>
      <point x="216" y="526"/>
      <point x="179" y="526" type="curve" smooth="yes"/>
      <point x="91" y="526"/>
      <point x="44" y="450"/>
      <point x="44" y="265" type="curve" smooth="yes"/>
      <point x="44" y="99"/>
      <point x="85" y="-9"/>
    </contour>
  </outline>
</glyph>
<glyph name="noNen-thai" format="2">
  <advance width="762"/>
  <unicode hex="0E13"/>
  <anchor x="697" y="0" name="bottom"/>
  <anchor x="697" y="505" name="top"/>
  <outline>
    <contour>
      <point x="171" y="-9" type="curve" smooth="yes"/>
      <point x="202" y="-9"/>
      <point x="230" y="-3"/>
      <point x="250" y="9" type="curve"/>
      <point x="238" y="91" type="line"/>
      <point x="230" y="88"/>
      <point x="220" y="86"/>
      <point x="211" y="86" type="curve" smooth="yes"/>
      <point x="189" y="86"/>
      <point x="179" y="97"/>
      <point x="179" y="124" type="curve" smooth="yes"/>
      <point x="179" y="184" type="line" smooth="yes"/>
      <point x="179" y="236"/>
      <point x="198" y="255"/>
      <point x="237" y="256" type="curve"/>
      <point x="245" y="316" type="line"/>
      <point x="180" y="357" type="line"/>
      <point x="183" y="399"/>
      <point x="209" y="420"/>
      <point x="247" y="420" type="curve" smooth="yes"/>
      <point x="287" y="420"/>
      <point x="316" y="397"/>
      <point x="316" y="330" type="curve" smooth="yes"/>
      <point x="316" y="161" type="line" smooth="yes"/>
      <point x="316" y="43"/>
      <point x="358" y="-9"/>
      <point x="448" y="-9" type="curve" smooth="yes"/>
      <point x="513" y="-9"/>
      <point x="556" y="28"/>
      <point x="574" y="81" type="curve"/>
      <point x="582" y="81" type="line"/>
      <point x="597" y="0" type="line"/>
      <point x="697" y="0" type="line"/>
      <point x="697" y="517" type="line"/>
      <point x="567" y="517" type="line"/>
      <point x="567" y="236" type="line" smooth="yes"/>
      <point x="567" y="159"/>
      <point x="539" y="110"/>
      <point x="497" y="110" type="curve" smooth="yes"/>
      <point x="467" y="110"/>
      <point x="444" y="134"/>
      <point x="444" y="196" type="curve" smooth="yes"/>
      <point x="444" y="340" type="line" smooth="yes"/>
      <point x="444" y="466"/>
      <point x="372" y="529"/>
      <point x="249" y="529" type="curve" smooth="yes"/>
      <point x="117" y="529"/>
      <point x="46" y="455"/>
      <point x="46" y="360" type="curve" smooth="yes"/>
      <point x="46" y="336" type="line"/>
      <point x="132" y="298" type="line"/>
      <point x="131" y="294" type="line"/>
      <point x="81" y="277"/>
      <point x="53" y="247"/>
      <point x="53" y="173" type="curve" smooth="yes"/>
      <point x="53" y="110" type="line" smooth="yes"/>
      <point x="53" y="28"/>
      <point x="97" y="-9"/>
    </contour>
  </outline>
</glyph>
<glyph name="doDek-thai" format="2">
  <advance width="520"/>
  <unicode hex="0E14"/>
  <anchor x="460" y="0" name="bottom"/>
  <anchor x="441" y="505" name="top"/>
  <outline>
    <contour>
      <point x="217" y="-9" type="curve" smooth="yes"/>
      <point x="239" y="-9"/>
      <point x="266" y="-7"/>
      <point x="283" y="3" type="curve"/>
      <point x="271" y="106" type="line"/>
      <point x="262" y="103"/>
      <point x="251" y="100"/>
      <point x="241" y="100" type="curve" smooth="yes"/>
      <point x="191" y="100"/>
      <point x="173" y="163"/>
      <point x="173" y="254" type="curve" smooth="yes"/>
      <point x="173" y="386"/>
      <point x="206" y="418"/>
      <point x="259" y="418" type="curve" smooth="yes"/>
      <point x="309" y="418"/>
      <point x="330" y="385"/>
      <point x="330" y="326" type="curve" smooth="yes"/>
      <point x="330" y="0" type="line"/>
      <point x="461" y="0" type="line"/>
      <point x="461" y="337" type="line" smooth="yes"/>
      <point x="461" y="453"/>
      <point x="406" y="529"/>
      <point x="259" y="529" type="curve" smooth="yes"/>
      <point x="131" y="529"/>
      <point x="40" y="471"/>
      <point x="40" y="251" type="curve" smooth="yes"/>
      <point x="40" y="99"/>
      <point x="86" y="-9"/>
    </contour>
  </outline>
</glyph>
<glyph name="toTao-thai" format="2">
  <advance width="536"/>
  <unicode hex="0E15"/>
  <note>
uni0E15
</note>
  <anchor x="477" y="0" name="bottom"/>
  <anchor x="457" y="505" name="top"/>
  <outline>
    <contour>
      <point x="229" y="-9" type="curve" smooth="yes"/>
      <point x="253" y="-9"/>
      <point x="272" y="-6"/>
      <point x="290" y="3" type="curve"/>
      <point x="277" y="101" type="line"/>
      <point x="269" y="98"/>
      <point x="260" y="95"/>
      <point x="249" y="95" type="curve" smooth="yes"/>
      <point x="192" y="95"/>
      <point x="177" y="156"/>
      <point x="177" y="264" type="curve" smooth="yes"/>
      <point x="177" y="374"/>
      <point x="189" y="416"/>
      <point x="213" y="416" type="curve" smooth="yes"/>
      <point x="228" y="416"/>
      <point x="239" y="407"/>
      <point x="243" y="371" type="curve"/>
      <point x="291" y="371" type="line"/>
      <point x="294" y="405"/>
      <point x="303" y="416"/>
      <point x="321" y="416" type="curve" smooth="yes"/>
      <point x="336" y="416"/>
      <point x="347" y="404"/>
      <point x="347" y="365" type="curve" smooth="yes"/>
      <point x="347" y="0" type="line"/>
      <point x="477" y="0" type="line"/>
      <point x="477" y="390" type="line" smooth="yes"/>
      <point x="477" y="478"/>
      <point x="440" y="526"/>
      <point x="365" y="526" type="curve" smooth="yes"/>
      <point x="327" y="526"/>
      <point x="287" y="513"/>
      <point x="271" y="467" type="curve"/>
      <point x="268" y="467" type="line"/>
      <point x="249" y="512"/>
      <point x="221" y="526"/>
      <point x="183" y="526" type="curve" smooth="yes"/>
      <point x="90" y="526"/>
      <point x="44" y="448"/>
      <point x="44" y="265" type="curve" smooth="yes"/>
      <point x="44" y="101"/>
      <point x="85" y="-9"/>
    </contour>
  </outline>
</glyph>
<glyph name="thoThung-thai" format="2">
  <advance width="513"/>
  <unicode hex="0E16"/>
  <anchor x="454" y="0" name="bottom"/>
  <anchor x="440" y="505" name="top"/>
  <outline>
    <contour>
      <point x="171" y="-9" type="curve" smooth="yes"/>
      <point x="202" y="-9"/>
      <point x="230" y="-3"/>
      <point x="250" y="9" type="curve"/>
      <point x="238" y="91" type="line"/>
      <point x="230" y="88"/>
      <point x="220" y="86"/>
      <point x="211" y="86" type="curve" smooth="yes"/>
      <point x="189" y="86"/>
      <point x="179" y="97"/>
      <point x="179" y="124" type="curve" smooth="yes"/>
      <point x="179" y="188" type="line" smooth="yes"/>
      <point x="179" y="240"/>
      <point x="198" y="255"/>
      <point x="237" y="256" type="curve"/>
      <point x="245" y="315" type="line"/>
      <point x="180" y="354" type="line"/>
      <point x="182" y="390"/>
      <point x="202" y="418"/>
      <point x="249" y="418" type="curve" smooth="yes"/>
      <point x="298" y="418"/>
      <point x="324" y="387"/>
      <point x="324" y="323" type="curve" smooth="yes"/>
      <point x="324" y="0" type="line"/>
      <point x="454" y="0" type="line"/>
      <point x="454" y="331" type="line" smooth="yes"/>
      <point x="454" y="464"/>
      <point x="379" y="529"/>
      <point x="252" y="529" type="curve" smooth="yes"/>
      <point x="118" y="529"/>
      <point x="46" y="452"/>
      <point x="46" y="360" type="curve" smooth="yes"/>
      <point x="46" y="336" type="line"/>
      <point x="132" y="298" type="line"/>
      <point x="131" y="294" type="line"/>
      <point x="81" y="277"/>
      <point x="53" y="244"/>
      <point x="53" y="170" type="curve" smooth="yes"/>
      <point x="53" y="110" type="line" smooth="yes"/>
      <point x="53" y="28"/>
      <point x="97" y="-9"/>
    </contour>
  </outline>
</glyph>
<glyph name="thoThahan-thai" format="2">
  <advance width="530"/>
  <unicode hex="0E17"/>
  <anchor x="472" y="0" name="bottom"/>
  <anchor x="451" y="505" name="top"/>
  <outline>
    <contour>
      <point x="64" y="0" type="line"/>
      <point x="194" y="0" type="line"/>
      <point x="194" y="250" type="line" smooth="yes"/>
      <point x="194" y="352"/>
      <point x="224" y="407"/>
      <point x="275" y="407" type="curve" smooth="yes"/>
      <point x="318" y="407"/>
      <point x="341" y="378"/>
      <point x="341" y="307" type="curve" smooth="yes"/>
      <point x="341" y="0" type="line"/>
      <point x="471" y="0" type="line"/>
      <point x="471" y="333" type="line" smooth="yes"/>
      <point x="471" y="463"/>
      <point x="421" y="526"/>
      <point x="318" y="526" type="curve" smooth="yes"/>
      <point x="246" y="526"/>
      <point x="202" y="488"/>
      <point x="184" y="435" type="curve"/>
      <point x="177" y="435" type="line"/>
      <point x="160" y="517" type="line"/>
      <point x="64" y="517" type="line"/>
    </contour>
  </outline>
</glyph>
<glyph name="thoThong-thai" format="2">
  <advance width="458"/>
  <unicode hex="0E18"/>
  <anchor x="379" y="0" name="bottom"/>
  <anchor x="408" y="505" name="top"/>
  <outline>
    <contour>
      <point x="235" y="-13" type="curve" smooth="yes"/>
      <point x="381" y="-13"/>
      <point x="425" y="61"/>
      <point x="425" y="159" type="curve" smooth="yes"/>
      <point x="425" y="266"/>
      <point x="377" y="304"/>
      <point x="285" y="336" type="curve" smooth="yes"/>
      <point x="217" y="360"/>
      <point x="171" y="364"/>
      <point x="171" y="395" type="curve" smooth="yes"/>
      <point x="171" y="420"/>
      <point x="197" y="427"/>
      <point x="228" y="427" type="curve" smooth="yes"/>
      <point x="290" y="427"/>
      <point x="358" y="408"/>
      <point x="390" y="392" type="curve"/>
      <point x="390" y="498" type="line"/>
      <point x="362" y="512"/>
      <point x="307" y="529"/>
      <point x="234" y="529" type="curve" smooth="yes"/>
      <point x="119" y="529"/>
      <point x="41" y="489"/>
      <point x="41" y="386" type="curve" smooth="yes"/>
      <point x="41" y="301"/>
      <point x="93" y="276"/>
      <point x="178" y="248" type="curve" smooth="yes"/>
      <point x="255" y="223"/>
      <point x="301" y="217"/>
      <point x="301" y="156" type="curve" smooth="yes"/>
      <point x="301" y="101"/>
      <point x="270" y="85"/>
      <point x="228" y="85" type="curve" smooth="yes"/>
      <point x="205" y="85"/>
      <point x="182" y="91"/>
      <point x="165" y="98" type="curve"/>
      <point x="165" y="228" type="line"/>
      <point x="55" y="228" type="line"/>
      <point x="55" y="24" type="line"/>
      <point x="105" y="4"/>
      <point x="169" y="-13"/>
    </contour>
  </outline>
</glyph>
<glyph name="noNu-thai" format="2">
  <advance width="531"/>
  <unicode hex="0E19"/>
  <note>
uni0E19
</note>
  <anchor x="466" y="0" name="bottom"/>
  <anchor x="466" y="505" name="top"/>
  <outline>
    <contour>
      <point x="209" y="-9" type="curve" smooth="yes"/>
      <point x="286" y="-9"/>
      <point x="327" y="29"/>
      <point x="345" y="80" type="curve"/>
      <point x="353" y="80" type="line"/>
      <point x="368" y="0" type="line"/>
      <point x="466" y="0" type="line"/>
      <point x="466" y="517" type="line"/>
      <point x="336" y="517" type="line"/>
      <point x="336" y="266" type="line" smooth="yes"/>
      <point x="336" y="159"/>
      <point x="306" y="110"/>
      <point x="253" y="110" type="curve" smooth="yes"/>
      <point x="212" y="110"/>
      <point x="189" y="140"/>
      <point x="189" y="210" type="curve" smooth="yes"/>
      <point x="189" y="517" type="line"/>
      <point x="59" y="517" type="line"/>
      <point x="59" y="186" type="line" smooth="yes"/>
      <point x="59" y="58"/>
      <point x="110" y="-9"/>
    </contour>
  </outline>
</glyph>
<glyph name="poPla-thai" format="2">
  <advance width="523"/>
  <unicode hex="0E1B"/>
  <note>
uni0E1B
</note>
  <anchor x="441" y="0" name="bottom"/>
  <anchor x="297" y="505" name="top"/>
  <outline>
    <contour>
      <point x="261" y="-13" type="curve" smooth="yes"/>
      <point x="402" y="-13"/>
      <point x="463" y="66"/>
      <point x="463" y="209" type="curve" smooth="yes"/>
      <point x="463" y="702" type="line"/>
      <point x="333" y="702" type="line"/>
      <point x="333" y="201" type="line" smooth="yes"/>
      <point x="333" y="133"/>
      <point x="311" y="98"/>
      <point x="261" y="98" type="curve" smooth="yes"/>
      <point x="211" y="98"/>
      <point x="189" y="133"/>
      <point x="189" y="201" type="curve" smooth="yes"/>
      <point x="189" y="517" type="line"/>
      <point x="59" y="517" type="line"/>
      <point x="59" y="209" type="line" smooth="yes"/>
      <point x="59" y="66"/>
      <point x="119" y="-13"/>
    </contour>
  </outline>
</glyph>
<glyph name="phoPhung-thai" format="2">
  <advance width="559"/>
  <unicode hex="0E1C"/>
  <anchor x="494" y="0" name="bottom"/>
  <anchor x="494" y="505" name="top"/>
  <outline>
    <contour>
      <point x="62" y="0" type="line"/>
      <point x="187" y="0" type="line"/>
      <point x="276" y="206" type="line"/>
      <point x="280" y="206" type="line"/>
      <point x="369" y="0" type="line"/>
      <point x="494" y="0" type="line"/>
      <point x="494" y="517" type="line"/>
      <point x="373" y="517" type="line"/>
      <point x="373" y="297" type="line" smooth="yes"/>
      <point x="373" y="265"/>
      <point x="375" y="224"/>
      <point x="381" y="159" type="curve"/>
      <point x="377" y="159" type="line"/>
      <point x="359" y="206"/>
      <point x="348" y="232"/>
      <point x="328" y="278" type="curve" smooth="yes"/>
      <point x="300" y="341" type="line"/>
      <point x="255" y="341" type="line"/>
      <point x="228" y="278" type="line" smooth="yes"/>
      <point x="216" y="250"/>
      <point x="201" y="219"/>
      <point x="179" y="159" type="curve"/>
      <point x="175" y="159" type="line"/>
      <point x="181" y="224"/>
      <point x="183" y="265"/>
      <point x="183" y="297" type="curve" smooth="yes"/>
      <point x="183" y="386" type="line" smooth="yes"/>
      <point x="183" y="410"/>
      <point x="189" y="423"/>
      <point x="208" y="423" type="curve" smooth="yes"/>
      <point x="214" y="423"/>
      <point x="222" y="422"/>
      <point x="230" y="419" type="curve"/>
      <point x="248" y="509" type="line"/>
      <point x="233" y="518"/>
      <point x="208" y="526"/>
      <point x="174" y="526" type="curve" smooth="yes"/>
      <point x="107" y="526"/>
      <point x="62" y="498"/>
      <point x="62" y="403" type="curve" smooth="yes"/>
    </contour>
  </outline>
</glyph>
<glyph name="phoPhan-thai" format="2">
  <advance width="596"/>
  <unicode hex="0E1E"/>
  <note>
uni0E1E
</note>
  <anchor x="494" y="0" name="bottom"/>
  <anchor x="537" y="505" name="top"/>
  <outline>
    <contour>
      <point x="102" y="0" type="line"/>
      <point x="226" y="0" type="line"/>
      <point x="274" y="207" type="line" smooth="yes"/>
      <point x="286" y="258"/>
      <point x="291" y="293"/>
      <point x="296" y="337" type="curve"/>
      <point x="300" y="337" type="line"/>
      <point x="304" y="293"/>
      <point x="308" y="255"/>
      <point x="319" y="207" type="curve" smooth="yes"/>
      <point x="366" y="0" type="line"/>
      <point x="494" y="0" type="line"/>
      <point x="569" y="517" type="line"/>
      <point x="443" y="517" type="line"/>
      <point x="423" y="340" type="line" smooth="yes"/>
      <point x="420" y="309"/>
      <point x="415" y="255"/>
      <point x="411" y="185" type="curve"/>
      <point x="408" y="185" type="line"/>
      <point x="395" y="255"/>
      <point x="384" y="309"/>
      <point x="376" y="343" type="curve" smooth="yes"/>
      <point x="336" y="517" type="line"/>
      <point x="260" y="517" type="line"/>
      <point x="219" y="343" type="line" smooth="yes"/>
      <point x="211" y="309"/>
      <point x="201" y="255"/>
      <point x="187" y="185" type="curve"/>
      <point x="185" y="185" type="line"/>
      <point x="180" y="255"/>
      <point x="176" y="309"/>
      <point x="173" y="340" type="curve" smooth="yes"/>
      <point x="153" y="517" type="line"/>
      <point x="27" y="517" type="line"/>
    </contour>
  </outline>
</glyph>
<glyph name="foFan-thai" format="2">
  <advance width="590"/>
  <unicode hex="0E1F"/>
  <anchor x="493" y="0" name="bottom"/>
  <anchor x="382" y="505" name="top"/>
  <outline>
    <contour>
      <point x="101" y="0" type="line"/>
      <point x="225" y="0" type="line"/>
      <point x="273" y="207" type="line" smooth="yes"/>
      <point x="284" y="257"/>
      <point x="290" y="293"/>
      <point x="295" y="337" type="curve"/>
      <point x="299" y="337" type="line"/>
      <point x="304" y="293"/>
      <point x="307" y="254"/>
      <point x="318" y="207" type="curve" smooth="yes"/>
      <point x="366" y="0" type="line"/>
      <point x="493" y="0" type="line"/>
      <point x="581" y="702" type="line"/>
      <point x="455" y="702" type="line"/>
      <point x="421" y="340" type="line" smooth="yes"/>
      <point x="418" y="302"/>
      <point x="414" y="254"/>
      <point x="410" y="185" type="curve"/>
      <point x="408" y="185" type="line"/>
      <point x="395" y="243"/>
      <point x="385" y="298"/>
      <point x="375" y="343" type="curve" smooth="yes"/>
      <point x="335" y="517" type="line"/>
      <point x="259" y="517" type="line"/>
      <point x="220" y="342" type="line" smooth="yes"/>
      <point x="208" y="290"/>
      <point x="199" y="243"/>
      <point x="186" y="185" type="curve"/>
      <point x="184" y="185" type="line"/>
      <point x="180" y="251"/>
      <point x="174" y="318"/>
      <point x="172" y="340" type="curve" smooth="yes"/>
      <point x="153" y="517" type="line"/>
      <point x="27" y="517" type="line"/>
    </contour>
  </outline>
</glyph>
<glyph name="phoSamphao-thai" format="2">
  <advance width="525"/>
  <unicode hex="0E20"/>
  <anchor x="466" y="0" name="bottom"/>
  <anchor x="452" y="505" name="top"/>
  <outline>
    <contour>
      <point x="99" y="-9" type="curve" smooth="yes"/>
      <point x="161" y="-9"/>
      <point x="206" y="20"/>
      <point x="206" y="101" type="curve" smooth="yes"/>
      <point x="206" y="181" type="line" smooth="yes"/>
      <point x="206" y="233"/>
      <point x="219" y="256"/>
      <point x="248" y="256" type="curve"/>
      <point x="256" y="316" type="line"/>
      <point x="191" y="354" type="line"/>
      <point x="193" y="390"/>
      <point x="213" y="418"/>
      <point x="260" y="418" type="curve" smooth="yes"/>
      <point x="310" y="418"/>
      <point x="335" y="387"/>
      <point x="335" y="323" type="curve" smooth="yes"/>
      <point x="335" y="0" type="line"/>
      <point x="466" y="0" type="line"/>
      <point x="466" y="331" type="line" smooth="yes"/>
      <point x="466" y="464"/>
      <point x="390" y="529"/>
      <point x="262" y="529" type="curve" smooth="yes"/>
      <point x="126" y="529"/>
      <point x="57" y="452"/>
      <point x="57" y="360" type="curve" smooth="yes"/>
      <point x="57" y="336" type="line"/>
      <point x="144" y="298" type="line"/>
      <point x="143" y="294" type="line"/>
      <point x="100" y="281"/>
      <point x="79" y="249"/>
      <point x="79" y="186" type="curve" smooth="yes"/>
      <point x="79" y="116" type="line" smooth="yes"/>
      <point x="79" y="93"/>
      <point x="72" y="83"/>
      <point x="54" y="83" type="curve" smooth="yes"/>
      <point x="47" y="83"/>
      <point x="41" y="84"/>
      <point x="34" y="87" type="curve"/>
      <point x="22" y="10" type="line"/>
      <point x="41" y="-2"/>
      <point x="67" y="-9"/>
    </contour>
  </outline>
</glyph>
<glyph name="moMa-thai" format="2">
  <advance width="531"/>
  <unicode hex="0E21"/>
  <note>
uni0E21
</note>
  <anchor x="461" y="0" name="bottom"/>
  <anchor x="472" y="505" name="top"/>
  <outline>
    <contour>
      <point x="326" y="-9" type="curve" smooth="yes"/>
      <point x="423" y="-9"/>
      <point x="472" y="58"/>
      <point x="472" y="180" type="curve" smooth="yes"/>
      <point x="472" y="517" type="line"/>
      <point x="342" y="517" type="line"/>
      <point x="342" y="210" type="line" smooth="yes"/>
      <point x="342" y="140"/>
      <point x="319" y="110"/>
      <point x="278" y="110" type="curve" smooth="yes"/>
      <point x="225" y="110"/>
      <point x="195" y="159"/>
      <point x="195" y="266" type="curve" smooth="yes"/>
      <point x="195" y="517" type="line"/>
      <point x="65" y="517" type="line"/>
      <point x="65" y="0" type="line"/>
      <point x="163" y="0" type="line"/>
      <point x="178" y="81" type="line"/>
      <point x="185" y="81" type="line"/>
      <point x="204" y="28"/>
      <point x="248" y="-9"/>
    </contour>
  </outline>
</glyph>
<glyph name="yoYak-thai" format="2">
  <advance width="511"/>
  <unicode hex="0E22"/>
  <note>
uni0E22
</note>
  <anchor x="430" y="0" name="bottom"/>
  <anchor x="452" y="505" name="top"/>
  <outline>
    <contour>
      <point x="247" y="-12" type="curve" smooth="yes"/>
      <point x="388" y="-12"/>
      <point x="452" y="48"/>
      <point x="452" y="177" type="curve" smooth="yes"/>
      <point x="452" y="517" type="line"/>
      <point x="322" y="517" type="line"/>
      <point x="322" y="173" type="line" smooth="yes"/>
      <point x="322" y="127"/>
      <point x="305" y="93"/>
      <point x="249" y="93" type="curve" smooth="yes"/>
      <point x="192" y="93"/>
      <point x="177" y="130"/>
      <point x="177" y="167" type="curve" smooth="yes"/>
      <point x="177" y="210"/>
      <point x="199" y="228"/>
      <point x="241" y="228" type="curve" smooth="yes"/>
      <point x="258" y="228" type="line"/>
      <point x="258" y="314" type="line"/>
      <point x="241" y="314" type="line" smooth="yes"/>
      <point x="208" y="314"/>
      <point x="175" y="325"/>
      <point x="175" y="373" type="curve" smooth="yes"/>
      <point x="175" y="403"/>
      <point x="189" y="423"/>
      <point x="220" y="423" type="curve" smooth="yes"/>
      <point x="234" y="423"/>
      <point x="248" y="419"/>
      <point x="256" y="415" type="curve"/>
      <point x="276" y="509" type="line"/>
      <point x="258" y="518"/>
      <point x="224" y="525"/>
      <point x="189" y="525" type="curve" smooth="yes"/>
      <point x="85" y="525"/>
      <point x="45" y="462"/>
      <point x="45" y="393" type="curve" smooth="yes"/>
      <point x="45" y="325"/>
      <point x="81" y="294"/>
      <point x="119" y="280" type="curve"/>
      <point x="119" y="274" type="line"/>
      <point x="83" y="264"/>
      <point x="45" y="232"/>
      <point x="45" y="150" type="curve" smooth="yes"/>
      <point x="45" y="53"/>
      <point x="100" y="-12"/>
    </contour>
  </outline>
</glyph>
<glyph name="roRua-thai" format="2">
  <advance width="428"/>
  <unicode hex="0E23"/>
  <note>
uni0E23
</note>
  <anchor x="353" y="0" name="bottom"/>
  <anchor x="384" y="505" name="top"/>
  <outline>
    <contour>
      <point x="215" y="-13" type="curve" smooth="yes"/>
      <point x="354" y="-13"/>
      <point x="397" y="66"/>
      <point x="397" y="150" type="curve" smooth="yes"/>
      <point x="397" y="239"/>
      <point x="353" y="270"/>
      <point x="271" y="309" type="curve" smooth="yes"/>
      <point x="210" y="338"/>
      <point x="173" y="350"/>
      <point x="173" y="381" type="curve" smooth="yes"/>
      <point x="173" y="407"/>
      <point x="194" y="423"/>
      <point x="233" y="423" type="curve" smooth="yes"/>
      <point x="278" y="423"/>
      <point x="336" y="405"/>
      <point x="365" y="390" type="curve"/>
      <point x="365" y="499" type="line"/>
      <point x="338" y="516"/>
      <point x="287" y="529"/>
      <point x="226" y="529" type="curve" smooth="yes"/>
      <point x="118" y="529"/>
      <point x="42" y="480"/>
      <point x="42" y="379" type="curve" smooth="yes"/>
      <point x="42" y="287"/>
      <point x="94" y="249"/>
      <point x="175" y="214" type="curve" smooth="yes"/>
      <point x="230" y="190"/>
      <point x="266" y="174"/>
      <point x="266" y="142" type="curve" smooth="yes"/>
      <point x="266" y="113"/>
      <point x="247" y="96"/>
      <point x="208" y="96" type="curve" smooth="yes"/>
      <point x="152" y="96"/>
      <point x="98" y="123"/>
      <point x="66" y="144" type="curve"/>
      <point x="30" y="35" type="line"/>
      <point x="81" y="4"/>
      <point x="151" y="-13"/>
    </contour>
  </outline>
</glyph>
<glyph name="ru-thai" format="2">
  <advance width="514"/>
  <unicode hex="0E24"/>
  <anchor x="455" y="-183" name="bottom"/>
  <anchor x="441" y="505" name="top"/>
  <outline>
    <contour>
      <point x="325" y="-199" type="line"/>
      <point x="455" y="-199" type="line"/>
      <point x="455" y="94" type="line"/>
      <point x="325" y="94" type="line"/>
    </contour>
    <component base="thoThung-thai" xOffset="1"/>
  </outline>
</glyph>
<glyph name="lu-thai" format="2">
  <advance width="525"/>
  <unicode hex="0E26"/>
  <anchor x="466" y="-183" name="bottom"/>
  <anchor x="441" y="505" name="top"/>
  <outline>
    <contour>
      <point x="335" y="-199" type="line"/>
      <point x="466" y="-199" type="line"/>
      <point x="466" y="94" type="line"/>
      <point x="335" y="94" type="line"/>
    </contour>
    <component base="phoSamphao-thai"/>
  </outline>
</glyph>
<glyph name="woWaen-thai" format="2">
  <advance width="423"/>
  <unicode hex="0E27"/>
  <anchor x="328" y="0" name="bottom"/>
  <anchor x="378" y="505" name="top"/>
  <outline>
    <contour>
      <point x="180" y="-13" type="curve" smooth="yes"/>
      <point x="309" y="-13"/>
      <point x="382" y="83"/>
      <point x="382" y="261" type="curve" smooth="yes"/>
      <point x="382" y="428"/>
      <point x="319" y="529"/>
      <point x="171" y="529" type="curve" smooth="yes"/>
      <point x="121" y="529"/>
      <point x="78" y="518"/>
      <point x="45" y="501" type="curve"/>
      <point x="45" y="388" type="line"/>
      <point x="70" y="406"/>
      <point x="111" y="418"/>
      <point x="147" y="418" type="curve" smooth="yes"/>
      <point x="216" y="418"/>
      <point x="249" y="363"/>
      <point x="249" y="261" type="curve" smooth="yes"/>
      <point x="249" y="153"/>
      <point x="212" y="98"/>
      <point x="158" y="98" type="curve" smooth="yes"/>
      <point x="127" y="98"/>
      <point x="89" y="113"/>
      <point x="66" y="129" type="curve"/>
      <point x="32" y="30" type="line"/>
      <point x="73" y="2"/>
      <point x="124" y="-13"/>
    </contour>
  </outline>
</glyph>
<glyph name="soSala-thai" format="2">
  <advance width="541"/>
  <unicode hex="0E28"/>
  <anchor x="472" y="0" name="bottom"/>
  <anchor x="438" y="505" name="top"/>
  <outline>
    <contour>
      <point x="59" y="0" type="line"/>
      <point x="188" y="0" type="line"/>
      <point x="188" y="67" type="line" smooth="yes"/>
      <point x="188" y="130"/>
      <point x="205" y="182"/>
      <point x="281" y="182" type="curve" smooth="yes"/>
      <point x="298" y="182" type="line"/>
      <point x="298" y="286" type="line"/>
      <point x="281" y="286" type="line" smooth="yes"/>
      <point x="234" y="286"/>
      <point x="211" y="274"/>
      <point x="191" y="225" type="curve"/>
      <point x="188" y="226" type="line"/>
      <point x="188" y="310" type="line" smooth="yes"/>
      <point x="188" y="378"/>
      <point x="211" y="418"/>
      <point x="267" y="418" type="curve" smooth="yes"/>
      <point x="323" y="418"/>
      <point x="345" y="378"/>
      <point x="345" y="310" type="curve" smooth="yes"/>
      <point x="345" y="0" type="line"/>
      <point x="475" y="0" type="line"/>
      <point x="475" y="307" type="line" smooth="yes"/>
      <point x="475" y="383"/>
      <point x="457" y="441"/>
      <point x="404" y="463" type="curve"/>
      <point x="379" y="512"/>
      <point x="329" y="529"/>
      <point x="269" y="529" type="curve" smooth="yes"/>
      <point x="123" y="529"/>
      <point x="59" y="451"/>
      <point x="59" y="308" type="curve" smooth="yes"/>
    </contour>
    <contour>
      <point x="409" y="415" type="line"/>
      <point x="484" y="439"/>
      <point x="511" y="492"/>
      <point x="511" y="550" type="curve"/>
      <point x="399" y="550" type="line"/>
      <point x="398" y="516"/>
      <point x="377" y="494"/>
      <point x="337" y="480" type="curve"/>
    </contour>
  </outline>
</glyph>
<glyph name="soRusi-thai" format="2">
  <advance width="555"/>
  <unicode hex="0E29"/>
  <anchor x="454" y="0" name="bottom"/>
  <anchor x="478" y="505" name="top"/>
  <outline>
    <contour>
      <point x="268" y="-13" type="curve" smooth="yes"/>
      <point x="417" y="-13"/>
      <point x="478" y="67"/>
      <point x="478" y="210" type="curve" smooth="yes"/>
      <point x="478" y="517" type="line"/>
      <point x="349" y="517" type="line"/>
      <point x="349" y="204" type="line" smooth="yes"/>
      <point x="349" y="129"/>
      <point x="326" y="97"/>
      <point x="271" y="97" type="curve" smooth="yes"/>
      <point x="211" y="97"/>
      <point x="188" y="134"/>
      <point x="188" y="204" type="curve" smooth="yes"/>
      <point x="188" y="517" type="line"/>
      <point x="59" y="517" type="line"/>
      <point x="59" y="210" type="line" smooth="yes"/>
      <point x="59" y="67"/>
      <point x="119" y="-13"/>
    </contour>
    <contour>
      <point x="320" y="206" type="curve" smooth="yes"/>
      <point x="522" y="206" type="line"/>
      <point x="522" y="294" type="line"/>
      <point x="327" y="294" type="line" smooth="yes"/>
      <point x="314" y="294"/>
      <point x="304" y="308"/>
      <point x="304" y="325" type="curve" smooth="yes"/>
      <point x="304" y="334"/>
      <point x="306" y="345"/>
      <point x="309" y="352" type="curve"/>
      <point x="235" y="369" type="line"/>
      <point x="224" y="354"/>
      <point x="218" y="326"/>
      <point x="218" y="304" type="curve" smooth="yes"/>
      <point x="218" y="257"/>
      <point x="242" y="206"/>
    </contour>
  </outline>
</glyph>
<glyph name="soSua-thai" format="2">
  <advance width="495"/>
  <unicode hex="0E2A"/>
  <note>
uni0E2A
</note>
  <anchor x="434" y="0" name="bottom"/>
  <anchor x="434" y="505" name="top"/>
  <outline>
    <contour>
      <point x="306" y="0" type="line"/>
      <point x="434" y="0" type="line"/>
      <point x="434" y="331" type="line" smooth="yes"/>
      <point x="434" y="404"/>
      <point x="415" y="452"/>
      <point x="368" y="469" type="curve"/>
      <point x="347" y="516"/>
      <point x="298" y="529"/>
      <point x="240" y="529" type="curve" smooth="yes"/>
      <point x="165" y="529"/>
      <point x="105" y="506"/>
      <point x="75" y="488" type="curve"/>
      <point x="75" y="374" type="line"/>
      <point x="112" y="400"/>
      <point x="170" y="423"/>
      <point x="225" y="423" type="curve" smooth="yes"/>
      <point x="280" y="423"/>
      <point x="306" y="398"/>
      <point x="306" y="336" type="curve" smooth="yes"/>
    </contour>
    <contour>
      <point x="177" y="-9" type="curve" smooth="yes"/>
      <point x="207" y="-9"/>
      <point x="238" y="-4"/>
      <point x="258" y="5" type="curve"/>
      <point x="248" y="91" type="line"/>
      <point x="238" y="88"/>
      <point x="225" y="84"/>
      <point x="213" y="84" type="curve" smooth="yes"/>
      <point x="183" y="84"/>
      <point x="163" y="103"/>
      <point x="163" y="142" type="curve" smooth="yes"/>
      <point x="163" y="182"/>
      <point x="182" y="206"/>
      <point x="236" y="212" type="curve" smooth="yes"/>
      <point x="327" y="222" type="line"/>
      <point x="327" y="322" type="line"/>
      <point x="222" y="312" type="line" smooth="yes"/>
      <point x="92" y="300"/>
      <point x="34" y="239"/>
      <point x="34" y="138" type="curve" smooth="yes"/>
      <point x="34" y="44"/>
      <point x="85" y="-9"/>
    </contour>
    <contour>
      <point x="366" y="415" type="line"/>
      <point x="442" y="439"/>
      <point x="468" y="492"/>
      <point x="468" y="550" type="curve"/>
      <point x="357" y="550" type="line"/>
      <point x="355" y="516"/>
      <point x="335" y="494"/>
      <point x="295" y="480" type="curve"/>
    </contour>
  </outline>
</glyph>
<glyph name="hoHip-thai" format="2">
  <advance width="511"/>
  <unicode hex="0E2B"/>
  <note>
uni0E2B
</note>
  <anchor x="462" y="0" name="bottom"/>
  <anchor x="442" y="505" name="top"/>
  <outline>
    <contour>
      <point x="65" y="0" type="line"/>
      <point x="193" y="0" type="line"/>
      <point x="193" y="160" type="line"/>
      <point x="465" y="512" type="line"/>
      <point x="465" y="517" type="line"/>
      <point x="323" y="517" type="line"/>
      <point x="196" y="327" type="line"/>
      <point x="193" y="327" type="line"/>
      <point x="193" y="517" type="line"/>
      <point x="65" y="517" type="line"/>
    </contour>
    <contour>
      <point x="332" y="0" type="line"/>
      <point x="462" y="0" type="line"/>
      <point x="462" y="192" type="line" smooth="yes"/>
      <point x="462" y="290"/>
      <point x="414" y="363"/>
      <point x="320" y="363" type="curve"/>
      <point x="243" y="267" type="line"/>
      <point x="299" y="267"/>
      <point x="332" y="239"/>
      <point x="332" y="172" type="curve" smooth="yes"/>
    </contour>
  </outline>
</glyph>
<glyph name="loChula-thai" format="2">
  <advance width="582"/>
  <unicode hex="0E2C"/>
  <anchor x="493" y="0" name="bottom"/>
  <outline>
    <contour>
      <point x="90" y="0" type="line"/>
      <point x="220" y="0" type="line"/>
      <point x="260" y="148" type="line" smooth="yes"/>
      <point x="272" y="194"/>
      <point x="280" y="227"/>
      <point x="290" y="292" type="curve"/>
      <point x="293" y="292" type="line"/>
      <point x="303" y="229"/>
      <point x="311" y="194"/>
      <point x="322" y="149" type="curve" smooth="yes"/>
      <point x="360" y="0" type="line"/>
      <point x="495" y="0" type="line"/>
      <point x="547" y="397" type="line" smooth="yes"/>
      <point x="553" y="445"/>
      <point x="542" y="503"/>
      <point x="496" y="524" type="curve"/>
      <point x="496" y="528" type="line"/>
      <point x="558" y="541"/>
      <point x="582" y="598"/>
      <point x="582" y="668" type="curve" smooth="yes"/>
      <point x="582" y="673" type="line"/>
      <point x="459" y="673" type="line"/>
      <point x="459" y="668" type="line" smooth="yes"/>
      <point x="459" y="615"/>
      <point x="437" y="577"/>
      <point x="364" y="577" type="curve" smooth="yes"/>
      <point x="300" y="577" type="line"/>
      <point x="300" y="487" type="line"/>
      <point x="353" y="487" type="line" smooth="yes"/>
      <point x="408" y="487"/>
      <point x="429" y="459"/>
      <point x="421" y="385" type="curve" smooth="yes"/>
      <point x="412" y="304" type="line" smooth="yes"/>
      <point x="408" y="262"/>
      <point x="404" y="208"/>
      <point x="402" y="152" type="curve"/>
      <point x="399" y="152" type="line"/>
      <point x="385" y="211"/>
      <point x="374" y="251"/>
      <point x="362" y="293" type="curve" smooth="yes"/>
      <point x="327" y="413" type="line"/>
      <point x="256" y="413" type="line"/>
      <point x="221" y="293" type="line" smooth="yes"/>
      <point x="208" y="248"/>
      <point x="198" y="211"/>
      <point x="183" y="152" type="curve"/>
      <point x="181" y="152" type="line"/>
      <point x="181" y="218"/>
      <point x="177" y="274"/>
      <point x="174" y="306" type="curve" smooth="yes"/>
      <point x="155" y="517" type="line"/>
      <point x="27" y="517" type="line"/>
    </contour>
  </outline>
</glyph>
<glyph name="oAng-thai" format="2">
  <advance width="486"/>
  <unicode hex="0E2D"/>
  <note>
uni0E2D
</note>
  <anchor x="394" y="0" name="bottom"/>
  <anchor x="418" y="505" name="top"/>
  <outline>
    <contour>
      <point x="236" y="-13" type="curve" smooth="yes"/>
      <point x="385" y="-13"/>
      <point x="448" y="84"/>
      <point x="448" y="255" type="curve" smooth="yes"/>
      <point x="448" y="423"/>
      <point x="384" y="529"/>
      <point x="227" y="529" type="curve" smooth="yes"/>
      <point x="167" y="529"/>
      <point x="99" y="512"/>
      <point x="64" y="491" type="curve"/>
      <point x="64" y="376" type="line"/>
      <point x="95" y="398"/>
      <point x="154" y="418"/>
      <point x="201" y="418" type="curve" smooth="yes"/>
      <point x="287" y="418"/>
      <point x="314" y="362"/>
      <point x="314" y="248" type="curve" smooth="yes"/>
      <point x="314" y="127"/>
      <point x="286" y="90"/>
      <point x="235" y="90" type="curve" smooth="yes"/>
      <point x="189" y="90"/>
      <point x="167" y="123"/>
      <point x="167" y="202" type="curve" smooth="yes"/>
      <point x="167" y="215" type="line"/>
      <point x="242" y="215" type="line"/>
      <point x="242" y="303" type="line"/>
      <point x="45" y="303" type="line"/>
      <point x="42" y="275"/>
      <point x="40" y="235"/>
      <point x="40" y="210" type="curve" smooth="yes"/>
      <point x="40" y="63"/>
      <point x="103" y="-13"/>
    </contour>
  </outline>
</glyph>
<glyph name="hoNokhuk-thai" format="2">
  <advance width="491"/>
  <unicode hex="0E2E"/>
  <anchor x="394" y="0" name="bottom"/>
  <anchor x="412" y="505" name="top"/>
  <outline>
    <contour>
      <point x="235" y="-13" type="curve" smooth="yes"/>
      <point x="385" y="-13"/>
      <point x="448" y="87"/>
      <point x="448" y="249" type="curve" smooth="yes"/>
      <point x="448" y="351"/>
      <point x="422" y="422"/>
      <point x="368" y="457" type="curve"/>
      <point x="338" y="509"/>
      <point x="286" y="529"/>
      <point x="224" y="529" type="curve" smooth="yes"/>
      <point x="168" y="529"/>
      <point x="99" y="512"/>
      <point x="63" y="491" type="curve"/>
      <point x="63" y="376" type="line"/>
      <point x="96" y="399"/>
      <point x="152" y="418"/>
      <point x="202" y="418" type="curve" smooth="yes"/>
      <point x="282" y="418"/>
      <point x="314" y="366"/>
      <point x="314" y="246" type="curve" smooth="yes"/>
      <point x="314" y="127"/>
      <point x="285" y="90"/>
      <point x="235" y="90" type="curve" smooth="yes"/>
      <point x="189" y="90"/>
      <point x="167" y="123"/>
      <point x="167" y="202" type="curve" smooth="yes"/>
      <point x="167" y="215" type="line"/>
      <point x="242" y="215" type="line"/>
      <point x="242" y="303" type="line"/>
      <point x="45" y="303" type="line"/>
      <point x="42" y="275"/>
      <point x="40" y="235"/>
      <point x="40" y="210" type="curve" smooth="yes"/>
      <point x="40" y="63"/>
      <point x="103" y="-13"/>
    </contour>
    <contour>
      <point x="364" y="415" type="line"/>
      <point x="439" y="439"/>
      <point x="466" y="492"/>
      <point x="466" y="550" type="curve"/>
      <point x="354" y="550" type="line"/>
      <point x="353" y="516"/>
      <point x="332" y="494"/>
      <point x="293" y="480" type="curve"/>
    </contour>
  </outline>
</glyph>
<glyph name="paiyannoi-thai" format="2">
  <advance width="447"/>
  <unicode hex="0E2F"/>
  <outline>
    <contour>
      <point x="256" y="0" type="line"/>
      <point x="387" y="0" type="line"/>
      <point x="387" y="517" type="line"/>
      <point x="256" y="517" type="line"/>
      <point x="256" y="393" type="line" smooth="yes"/>
      <point x="256" y="332"/>
      <point x="237" y="304"/>
      <point x="195" y="304" type="curve" smooth="yes"/>
      <point x="156" y="304"/>
      <point x="136" y="330"/>
      <point x="136" y="371" type="curve" smooth="yes"/>
      <point x="136" y="413"/>
      <point x="155" y="432"/>
      <point x="178" y="432" type="curve" smooth="yes"/>
      <point x="184" y="432"/>
      <point x="190" y="431"/>
      <point x="200" y="427" type="curve"/>
      <point x="209" y="515" type="line"/>
      <point x="186" y="524"/>
      <point x="164" y="526"/>
      <point x="149" y="526" type="curve" smooth="yes"/>
      <point x="64" y="526"/>
      <point x="14" y="466"/>
      <point x="14" y="369" type="curve" smooth="yes"/>
      <point x="14" y="254"/>
      <point x="84" y="200"/>
      <point x="163" y="200" type="curve" smooth="yes"/>
      <point x="234" y="200"/>
      <point x="284" y="239"/>
      <point x="285" y="307" type="curve"/>
      <point x="256" y="303" type="line"/>
    </contour>
  </outline>
</glyph>
<glyph name="saraA-thai" format="2">
  <advance width="298"/>
  <unicode hex="0E30"/>
  <outline>
    <contour>
      <point x="137" y="326" type="curve" smooth="yes"/>
      <point x="257" y="326" type="line"/>
      <point x="257" y="421" type="line"/>
      <point x="171" y="421" type="line" smooth="yes"/>
      <point x="149" y="421"/>
      <point x="142" y="431"/>
      <point x="142" y="449" type="curve" smooth="yes"/>
      <point x="142" y="461"/>
      <point x="143" y="472"/>
      <point x="146" y="481" type="curve"/>
      <point x="53" y="495" type="line"/>
      <point x="42" y="472"/>
      <point x="36" y="447"/>
      <point x="36" y="425" type="curve" smooth="yes"/>
      <point x="36" y="373"/>
      <point x="62" y="326"/>
    </contour>
    <contour>
      <point x="137" y="46" type="curve" smooth="yes"/>
      <point x="257" y="46" type="line"/>
      <point x="257" y="141" type="line"/>
      <point x="171" y="141" type="line" smooth="yes"/>
      <point x="149" y="141"/>
      <point x="142" y="151"/>
      <point x="142" y="169" type="curve" smooth="yes"/>
      <point x="142" y="181"/>
      <point x="143" y="192"/>
      <point x="146" y="201" type="curve"/>
      <point x="53" y="215" type="line"/>
      <point x="42" y="192"/>
      <point x="36" y="167"/>
      <point x="36" y="145" type="curve" smooth="yes"/>
      <point x="36" y="93"/>
      <point x="62" y="46"/>
    </contour>
  </outline>
</glyph>
<glyph name="maiHanaKat-thai" format="2">
  <unicode hex="0E31"/>
  <anchor x="-65" y="505" name="_top"/>
  <anchor x="-58" y="714" name="top"/>
  <outline>
    <contour>
      <point x="-186" y="605" type="curve" smooth="yes"/>
      <point x="15" y="605" type="line"/>
      <point x="15" y="697" type="line"/>
      <point x="-151" y="697" type="line" smooth="yes"/>
      <point x="-173" y="697"/>
      <point x="-181" y="708"/>
      <point x="-181" y="727" type="curve" smooth="yes"/>
      <point x="-181" y="735"/>
      <point x="-180" y="747"/>
      <point x="-177" y="755" type="curve"/>
      <point x="-270" y="769" type="line"/>
      <point x="-281" y="747"/>
      <point x="-287" y="720"/>
      <point x="-287" y="698" type="curve" smooth="yes"/>
      <point x="-287" y="651"/>
      <point x="-263" y="605"/>
    </contour>
  </outline>
</glyph>
<glyph name="saraAa-thai" format="2">
  <advance width="370"/>
  <unicode hex="0E32"/>
  <outline>
    <contour>
      <point x="181" y="0" type="line"/>
      <point x="311" y="0" type="line"/>
      <point x="311" y="367" type="line" smooth="yes"/>
      <point x="311" y="489"/>
      <point x="246" y="529"/>
      <point x="156" y="529" type="curve" smooth="yes"/>
      <point x="99" y="529"/>
      <point x="53" y="513"/>
      <point x="30" y="501" type="curve"/>
      <point x="30" y="390" type="line"/>
      <point x="54" y="406"/>
      <point x="83" y="419"/>
      <point x="117" y="419" type="curve" smooth="yes"/>
      <point x="161" y="419"/>
      <point x="181" y="396"/>
      <point x="181" y="343" type="curve" smooth="yes"/>
    </contour>
  </outline>
</glyph>
<glyph name="saraI-thai" format="2">
  <unicode hex="0E34"/>
  <anchor x="-65" y="505" name="_top"/>
  <anchor x="-65" y="686" name="top"/>
  <outline>
    <contour>
      <point x="-437" y="605" type="line"/>
      <point x="-65" y="605" type="line"/>
      <point x="-65" y="704" type="line"/>
      <point x="-352" y="704" type="line"/>
      <point x="-437" y="664" type="line"/>
    </contour>
  </outline>
</glyph>
<glyph name="saraIi-thai" format="2">
  <unicode hex="0E35"/>
  <anchor x="-65" y="505" name="_top"/>
  <anchor x="-65" y="741" name="top"/>
  <outline>
    <contour>
      <point x="-437" y="605" type="line"/>
      <point x="-65" y="605" type="line"/>
      <point x="-65" y="704" type="line"/>
      <point x="-352" y="704" type="line"/>
      <point x="-437" y="664" type="line"/>
    </contour>
    <contour>
      <point x="-175" y="662" type="line"/>
      <point x="-65" y="662" type="line"/>
      <point x="-65" y="775" type="line"/>
      <point x="-175" y="775" type="line"/>
    </contour>
  </outline>
</glyph>
<glyph name="saraUe-thai" format="2">
  <unicode hex="0E36"/>
  <anchor x="-65" y="505" name="_top"/>
  <anchor x="-66" y="741" name="top"/>
  <outline>
    <contour>
      <point x="-437" y="605" type="line"/>
      <point x="-129" y="605" type="line" smooth="yes"/>
      <point x="-72" y="605"/>
      <point x="-45" y="644"/>
      <point x="-45" y="696" type="curve" smooth="yes"/>
      <point x="-45" y="749"/>
      <point x="-76" y="788"/>
      <point x="-129" y="788" type="curve" smooth="yes"/>
      <point x="-180" y="788"/>
      <point x="-211" y="752"/>
      <point x="-211" y="703" type="curve" smooth="yes"/>
      <point x="-211" y="693"/>
      <point x="-210" y="681"/>
      <point x="-206" y="668" type="curve"/>
      <point x="-181" y="704" type="line"/>
      <point x="-352" y="704" type="line"/>
      <point x="-437" y="664" type="line"/>
    </contour>
    <contour>
      <point x="-130" y="656" type="curve" smooth="yes"/>
      <point x="-153" y="656"/>
      <point x="-165" y="674"/>
      <point x="-165" y="696" type="curve" smooth="yes"/>
      <point x="-165" y="718"/>
      <point x="-152" y="735"/>
      <point x="-131" y="735" type="curve" smooth="yes"/>
      <point x="-109" y="735"/>
      <point x="-96" y="718"/>
      <point x="-96" y="695" type="curve" smooth="yes"/>
      <point x="-96" y="673"/>
      <point x="-107" y="656"/>
    </contour>
  </outline>
</glyph>
<glyph name="saraUee-thai" format="2">
  <unicode hex="0E37"/>
  <anchor x="-67" y="505" name="_top"/>
  <anchor x="-102" y="741" name="top"/>
  <outline>
    <contour>
      <point x="-437" y="605" type="line"/>
      <point x="-65" y="605" type="line"/>
      <point x="-65" y="704" type="line"/>
      <point x="-352" y="704" type="line"/>
      <point x="-437" y="664" type="line"/>
    </contour>
    <contour>
      <point x="-269" y="662" type="line"/>
      <point x="-189" y="662" type="line"/>
      <point x="-189" y="775" type="line"/>
      <point x="-269" y="775" type="line"/>
    </contour>
    <contour>
      <point x="-144" y="662" type="line"/>
      <point x="-65" y="662" type="line"/>
      <point x="-65" y="775" type="line"/>
      <point x="-144" y="775" type="line"/>
    </contour>
  </outline>
</glyph>
<glyph name="saraU-thai" format="2">
  <unicode hex="0E38"/>
  <anchor x="-65" y="0" name="_bottom"/>
  <anchor x="-65" y="-271" name="bottom"/>
  <outline>
    <contour>
      <point x="-176" y="-261" type="line"/>
      <point x="-65" y="-261" type="line"/>
      <point x="-65" y="-135" type="line" smooth="yes"/>
      <point x="-65" y="-91"/>
      <point x="-84" y="-64"/>
      <point x="-139" y="-64" type="curve" smooth="yes"/>
      <point x="-169" y="-64"/>
      <point x="-200" y="-71"/>
      <point x="-215" y="-78" type="curve"/>
      <point x="-210" y="-148" type="line"/>
      <point x="-205" y="-146"/>
      <point x="-199" y="-144"/>
      <point x="-193" y="-144" type="curve" smooth="yes"/>
      <point x="-181" y="-144"/>
      <point x="-176" y="-152"/>
      <point x="-176" y="-169" type="curve" smooth="yes"/>
    </contour>
  </outline>
</glyph>
<glyph name="saraUu-thai" format="2">
  <unicode hex="0E39"/>
  <anchor x="-65" y="0" name="_bottom"/>
  <anchor x="-65" y="-265" name="bottom"/>
  <outline>
    <contour>
      <point x="-192" y="-265" type="curve" smooth="yes"/>
      <point x="-103" y="-265"/>
      <point x="-65" y="-230"/>
      <point x="-65" y="-164" type="curve" smooth="yes"/>
      <point x="-65" y="-67" type="line"/>
      <point x="-170" y="-67" type="line"/>
      <point x="-170" y="-150" type="line" smooth="yes"/>
      <point x="-170" y="-173"/>
      <point x="-176" y="-187"/>
      <point x="-196" y="-187" type="curve" smooth="yes"/>
      <point x="-216" y="-187"/>
      <point x="-222" y="-173"/>
      <point x="-222" y="-150" type="curve" smooth="yes"/>
      <point x="-222" y="-125" type="line" smooth="yes"/>
      <point x="-222" y="-86"/>
      <point x="-243" y="-64"/>
      <point x="-291" y="-64" type="curve" smooth="yes"/>
      <point x="-307" y="-64"/>
      <point x="-338" y="-66"/>
      <point x="-352" y="-73" type="curve"/>
      <point x="-347" y="-139" type="line"/>
      <point x="-330" y="-134"/>
      <point x="-320" y="-137"/>
      <point x="-320" y="-159" type="curve" smooth="yes"/>
      <point x="-320" y="-176" type="line" smooth="yes"/>
      <point x="-320" y="-230"/>
      <point x="-282" y="-265"/>
    </contour>
  </outline>
</glyph>
<glyph name="saraE-thai" format="2">
  <advance width="290"/>
  <unicode hex="0E40"/>
  <outline>
    <contour>
      <point x="188" y="-9" type="curve" smooth="yes"/>
      <point x="219" y="-9"/>
      <point x="247" y="-3"/>
      <point x="267" y="9" type="curve"/>
      <point x="255" y="98" type="line"/>
      <point x="247" y="94"/>
      <point x="236" y="91"/>
      <point x="229" y="91" type="curve" smooth="yes"/>
      <point x="210" y="91"/>
      <point x="202" y="102"/>
      <point x="202" y="126" type="curve" smooth="yes"/>
      <point x="202" y="517" type="line"/>
      <point x="72" y="517" type="line"/>
      <point x="72" y="110" type="line" smooth="yes"/>
      <point x="72" y="28"/>
      <point x="110" y="-9"/>
    </contour>
  </outline>
</glyph>
<glyph name="saraO-thai" format="2">
  <advance width="305"/>
  <unicode hex="0E42"/>
  <outline>
    <contour>
      <point x="88" y="422" type="line"/>
      <point x="218" y="422" type="line"/>
      <point x="218" y="562" type="line" smooth="yes"/>
      <point x="218" y="623"/>
      <point x="207" y="660"/>
      <point x="177" y="679" type="curve"/>
      <point x="178" y="683" type="line"/>
      <point x="305" y="683" type="line"/>
      <point x="305" y="783" type="line"/>
      <point x="103" y="783" type="line"/>
      <point x="18" y="739" type="line"/>
      <point x="18" y="683" type="line"/>
      <point x="66" y="683"/>
      <point x="88" y="653"/>
      <point x="88" y="578" type="curve" smooth="yes"/>
    </contour>
    <component base="saraE-thai" xOffset="16"/>
  </outline>
</glyph>
<glyph name="saraAiMaimuan-thai" format="2">
  <advance width="287"/>
  <unicode hex="0E43"/>
  <outline>
    <contour>
      <point x="188" y="-9" type="curve" smooth="yes"/>
      <point x="219" y="-9"/>
      <point x="247" y="-3"/>
      <point x="267" y="9" type="curve"/>
      <point x="256" y="98" type="line"/>
      <point x="247" y="94"/>
      <point x="237" y="91"/>
      <point x="228" y="91" type="curve" smooth="yes"/>
      <point x="210" y="91"/>
      <point x="202" y="102"/>
      <point x="202" y="126" type="curve" smooth="yes"/>
      <point x="202" y="456" type="line" smooth="yes"/>
      <point x="202" y="502"/>
      <point x="216" y="514"/>
      <point x="242" y="556" type="curve" smooth="yes"/>
      <point x="260" y="585"/>
      <point x="280" y="621"/>
      <point x="280" y="672" type="curve" smooth="yes"/>
      <point x="280" y="755"/>
      <point x="226" y="796"/>
      <point x="139" y="796" type="curve" smooth="yes"/>
      <point x="81" y="796"/>
      <point x="37" y="778"/>
      <point x="23" y="769" type="curve"/>
      <point x="23" y="667" type="line"/>
      <point x="41" y="680"/>
      <point x="62" y="690"/>
      <point x="90" y="690" type="curve" smooth="yes"/>
      <point x="128" y="690"/>
      <point x="144" y="672"/>
      <point x="144" y="642" type="curve" smooth="yes"/>
      <point x="144" y="615"/>
      <point x="127" y="596"/>
      <point x="107" y="567" type="curve" smooth="yes"/>
      <point x="78" y="525"/>
      <point x="72" y="509"/>
      <point x="72" y="460" type="curve" smooth="yes"/>
      <point x="72" y="110" type="line" smooth="yes"/>
      <point x="72" y="28"/>
      <point x="110" y="-9"/>
    </contour>
  </outline>
</glyph>
<glyph name="saraAiMaimalai-thai" format="2">
  <advance width="297"/>
  <unicode hex="0E44"/>
  <outline>
    <contour>
      <point x="89" y="422" type="line"/>
      <point x="219" y="422" type="line"/>
      <point x="219" y="578" type="line" smooth="yes"/>
      <point x="219" y="658"/>
      <point x="252" y="683"/>
      <point x="290" y="683" type="curve"/>
      <point x="290" y="783" type="line"/>
      <point x="30" y="783" type="line"/>
      <point x="7" y="683" type="line"/>
      <point x="129" y="683" type="line"/>
      <point x="130" y="679" type="line"/>
      <point x="109" y="661"/>
      <point x="89" y="632"/>
      <point x="89" y="562" type="curve" smooth="yes"/>
    </contour>
    <component base="saraE-thai" xOffset="17"/>
  </outline>
</glyph>
<glyph name="lakkhangyao-thai" format="2">
  <advance width="370"/>
  <unicode hex="0E45"/>
  <outline>
    <contour>
      <point x="181" y="-199" type="line"/>
      <point x="311" y="-199" type="line"/>
      <point x="311" y="94" type="line"/>
      <point x="181" y="94" type="line"/>
    </contour>
    <component base="saraAa-thai"/>
  </outline>
</glyph>
<glyph name="maiyamok-thai" format="2">
  <advance width="526"/>
  <unicode hex="0E46"/>
  <outline>
    <contour>
      <point x="337" y="-199" type="line"/>
      <point x="467" y="-199" type="line"/>
      <point x="467" y="392" type="line" smooth="yes"/>
      <point x="467" y="502"/>
      <point x="416" y="529"/>
      <point x="355" y="529" type="curve" smooth="yes"/>
      <point x="310" y="529"/>
      <point x="279" y="514"/>
      <point x="264" y="480" type="curve"/>
      <point x="261" y="480" type="line"/>
      <point x="247" y="514"/>
      <point x="214" y="529"/>
      <point x="173" y="529" type="curve" smooth="yes"/>
      <point x="100" y="529"/>
      <point x="50" y="480"/>
      <point x="50" y="357" type="curve" smooth="yes"/>
      <point x="50" y="239"/>
      <point x="97" y="180"/>
      <point x="174" y="180" type="curve" smooth="yes"/>
      <point x="208" y="180"/>
      <point x="234" y="190"/>
      <point x="249" y="203" type="curve"/>
      <point x="228" y="290" type="line"/>
      <point x="220" y="286"/>
      <point x="211" y="284"/>
      <point x="203" y="284" type="curve" smooth="yes"/>
      <point x="179" y="284"/>
      <point x="168" y="302"/>
      <point x="168" y="358" type="curve" smooth="yes"/>
      <point x="168" y="411"/>
      <point x="178" y="430"/>
      <point x="198" y="430" type="curve" smooth="yes"/>
      <point x="215" y="430"/>
      <point x="226" y="417"/>
      <point x="226" y="387" type="curve" smooth="yes"/>
      <point x="226" y="355" type="line"/>
      <point x="281" y="355" type="line"/>
      <point x="281" y="387" type="line" smooth="yes"/>
      <point x="281" y="417"/>
      <point x="291" y="430"/>
      <point x="309" y="430" type="curve" smooth="yes"/>
      <point x="327" y="430"/>
      <point x="337" y="417"/>
      <point x="337" y="387" type="curve" smooth="yes"/>
    </contour>
  </outline>
</glyph>
<glyph name="maitaikhu-thai" format="2">
  <unicode hex="0E47"/>
  <anchor x="-64" y="505" name="_top"/>
  <anchor x="-165" y="814" name="top"/>
  <outline>
    <contour>
      <point x="-165" y="585" type="curve" smooth="yes"/>
      <point x="-115" y="585"/>
      <point x="-83" y="618"/>
      <point x="-83" y="689" type="curve" smooth="yes"/>
      <point x="-83" y="708" type="line"/>
      <point x="-170" y="708" type="line"/>
      <point x="-170" y="693" type="line" smooth="yes"/>
      <point x="-170" y="672"/>
      <point x="-178" y="657"/>
      <point x="-193" y="657" type="curve" smooth="yes"/>
      <point x="-212" y="657"/>
      <point x="-222" y="678"/>
      <point x="-225" y="704" type="curve"/>
      <point x="-241" y="704" type="line"/>
      <point x="-276" y="660" type="line"/>
      <point x="-292" y="660"/>
      <point x="-300" y="678"/>
      <point x="-300" y="703" type="curve" smooth="yes"/>
      <point x="-300" y="737"/>
      <point x="-285" y="753"/>
      <point x="-266" y="753" type="curve" smooth="yes"/>
      <point x="-84" y="753" type="line"/>
      <point x="-84" y="824" type="line"/>
      <point x="-289" y="824" type="line" smooth="yes"/>
      <point x="-341" y="824"/>
      <point x="-389" y="786"/>
      <point x="-389" y="706" type="curve" smooth="yes"/>
      <point x="-389" y="629"/>
      <point x="-345" y="588"/>
      <point x="-276" y="588" type="curve"/>
      <point x="-236" y="630" type="line"/>
      <point x="-222" y="601"/>
      <point x="-199" y="585"/>
    </contour>
  </outline>
</glyph>
<glyph name="maiEk-thai" format="2">
  <unicode hex="0E48"/>
  <anchor x="-65" y="505" name="_top"/>
  <anchor x="-65" y="814" name="top"/>
  <outline>
    <contour>
      <point x="-189" y="604" type="line"/>
      <point x="-70" y="604" type="line"/>
      <point x="-70" y="828" type="line"/>
      <point x="-189" y="828" type="line"/>
    </contour>
  </outline>
</glyph>
<glyph name="maiTho-thai" format="2">
  <unicode hex="0E49"/>
  <anchor x="-62" y="505" name="_top"/>
  <anchor x="-122" y="814" name="top"/>
  <outline>
    <contour>
      <point x="-299" y="604" type="line"/>
      <point x="-45" y="604" type="line"/>
      <point x="-45" y="697" type="line"/>
      <point x="-184" y="697" type="line"/>
      <point x="-182" y="671" type="line"/>
      <point x="-156" y="687"/>
      <point x="-145" y="714"/>
      <point x="-145" y="744" type="curve" smooth="yes"/>
      <point x="-145" y="797"/>
      <point x="-174" y="827"/>
      <point x="-223" y="827" type="curve" smooth="yes"/>
      <point x="-246" y="827"/>
      <point x="-283" y="821"/>
      <point x="-305" y="799" type="curve"/>
      <point x="-290" y="734" type="line"/>
      <point x="-283" y="738"/>
      <point x="-273" y="743"/>
      <point x="-265" y="743" type="curve" smooth="yes"/>
      <point x="-252" y="743"/>
      <point x="-243" y="732"/>
      <point x="-243" y="713" type="curve" smooth="yes"/>
      <point x="-243" y="676"/>
      <point x="-280" y="661"/>
      <point x="-299" y="653" type="curve"/>
    </contour>
  </outline>
</glyph>
<glyph name="maiTri-thai" format="2">
  <unicode hex="0E4A"/>
  <anchor x="-65" y="505" name="_top"/>
  <anchor x="-150" y="814" name="top"/>
  <outline>
    <contour>
      <point x="-279" y="599" type="curve" smooth="yes"/>
      <point x="-261" y="599"/>
      <point x="-239" y="603"/>
      <point x="-231" y="610" type="curve"/>
      <point x="-236" y="671" type="line"/>
      <point x="-242" y="668"/>
      <point x="-247" y="668"/>
      <point x="-251" y="668" type="curve" smooth="yes"/>
      <point x="-267" y="668"/>
      <point x="-276" y="683"/>
      <point x="-276" y="707" type="curve" smooth="yes"/>
      <point x="-276" y="733"/>
      <point x="-265" y="743"/>
      <point x="-256" y="745" type="curve"/>
      <point x="-229" y="722" type="line"/>
      <point x="-225" y="722" type="line"/>
      <point x="-197" y="745" type="line"/>
      <point x="-187" y="744"/>
      <point x="-175" y="732"/>
      <point x="-175" y="706" type="curve" smooth="yes"/>
      <point x="-175" y="682"/>
      <point x="-186" y="671"/>
      <point x="-199" y="664" type="curve"/>
      <point x="-199" y="604" type="line"/>
      <point x="-31" y="604" type="line"/>
      <point x="-31" y="691" type="line"/>
      <point x="-105" y="691" type="line"/>
      <point x="-102" y="675" type="line"/>
      <point x="-92" y="688"/>
      <point x="-85" y="707"/>
      <point x="-85" y="733" type="curve" smooth="yes"/>
      <point x="-85" y="780"/>
      <point x="-109" y="820"/>
      <point x="-183" y="824" type="curve"/>
      <point x="-227" y="787" type="line"/>
      <point x="-278" y="824" type="line"/>
      <point x="-335" y="820"/>
      <point x="-371" y="778"/>
      <point x="-371" y="709" type="curve" smooth="yes"/>
      <point x="-371" y="641"/>
      <point x="-337" y="599"/>
    </contour>
  </outline>
</glyph>
<glyph name="maiChattawa-thai" format="2">
  <unicode hex="0E4B"/>
  <anchor x="-65" y="505" name="_top"/>
  <anchor x="-74" y="814" name="top"/>
  <outline>
    <contour>
      <point x="-191" y="604" type="line"/>
      <point x="-87" y="604" type="line"/>
      <point x="-87" y="828" type="line"/>
      <point x="-191" y="828" type="line"/>
    </contour>
    <contour>
      <point x="-245" y="674" type="line"/>
      <point x="-33" y="674" type="line"/>
      <point x="-33" y="757" type="line"/>
      <point x="-245" y="757" type="line"/>
    </contour>
  </outline>
</glyph>
<glyph name="thanthakhat-thai" format="2">
  <unicode hex="0E4C"/>
  <anchor x="-65" y="505" name="_top"/>
  <anchor x="-69" y="740" name="top"/>
  <outline>
    <contour>
      <point x="-217" y="582" type="curve"/>
      <point x="-116" y="600" type="line"/>
      <point x="-120" y="610"/>
      <point x="-123" y="621"/>
      <point x="-123" y="631" type="curve" smooth="yes"/>
      <point x="-123" y="653"/>
      <point x="-111" y="661"/>
      <point x="-91" y="661" type="curve" smooth="yes"/>
      <point x="-17" y="661" type="line"/>
      <point x="-17" y="757" type="line"/>
      <point x="-135" y="757" type="line" smooth="yes"/>
      <point x="-210" y="757"/>
      <point x="-233" y="713"/>
      <point x="-233" y="659" type="curve" smooth="yes"/>
      <point x="-233" y="630"/>
      <point x="-226" y="600"/>
    </contour>
  </outline>
</glyph>
<glyph name="nikhahit-thai" format="2">
  <unicode hex="0E4D"/>
  <anchor x="-65" y="505" name="_top"/>
  <anchor x="-88" y="741" name="top"/>
  <outline>
    <contour>
      <point x="-150" y="582" type="curve" smooth="yes"/>
      <point x="-87" y="582"/>
      <point x="-47" y="618"/>
      <point x="-47" y="680" type="curve" smooth="yes"/>
      <point x="-47" y="742"/>
      <point x="-87" y="778"/>
      <point x="-150" y="778" type="curve" smooth="yes"/>
      <point x="-213" y="778"/>
      <point x="-253" y="742"/>
      <point x="-253" y="680" type="curve" smooth="yes"/>
      <point x="-253" y="618"/>
      <point x="-213" y="582"/>
    </contour>
    <contour>
      <point x="-150" y="639" type="curve" smooth="yes"/>
      <point x="-172" y="639"/>
      <point x="-186" y="655"/>
      <point x="-186" y="680" type="curve" smooth="yes"/>
      <point x="-186" y="705"/>
      <point x="-172" y="721"/>
      <point x="-150" y="721" type="curve" smooth="yes"/>
      <point x="-127" y="721"/>
      <point x="-114" y="705"/>
      <point x="-114" y="680" type="curve" smooth="yes"/>
      <point x="-114" y="655"/>
      <point x="-127" y="639"/>
    </contour>
  </outline>
</glyph>
<glyph name="yamakkan-thai" format="2">
  <unicode hex="0E4E"/>
  <anchor x="-65" y="505" name="_top"/>
  <anchor x="-68" y="738" name="top"/>
  <outline>
    <contour>
      <point x="-226" y="582" type="curve"/>
      <point x="-148" y="597" type="line"/>
      <point x="-151" y="605"/>
      <point x="-152" y="611"/>
      <point x="-152" y="619" type="curve" smooth="yes"/>
      <point x="-152" y="635"/>
      <point x="-145" y="648"/>
      <point x="-128" y="648" type="curve" smooth="yes"/>
      <point x="-122" y="648"/>
      <point x="-112" y="647"/>
      <point x="-104" y="638" type="curve"/>
      <point x="-73" y="663" type="line"/>
      <point x="-77" y="671"/>
      <point x="-79" y="680"/>
      <point x="-79" y="687" type="curve" smooth="yes"/>
      <point x="-79" y="709"/>
      <point x="-64" y="721"/>
      <point x="-46" y="721" type="curve" smooth="yes"/>
      <point x="-38" y="721"/>
      <point x="-26" y="719"/>
      <point x="-18" y="715" type="curve"/>
      <point x="-18" y="780" type="line"/>
      <point x="-33" y="788"/>
      <point x="-55" y="791"/>
      <point x="-69" y="791" type="curve" smooth="yes"/>
      <point x="-107" y="791"/>
      <point x="-142" y="770"/>
      <point x="-142" y="723" type="curve" smooth="yes"/>
      <point x="-142" y="709"/>
      <point x="-139" y="691"/>
      <point x="-131" y="680" type="curve"/>
      <point x="-119" y="690" type="line"/>
      <point x="-131" y="701"/>
      <point x="-143" y="711"/>
      <point x="-168" y="711" type="curve" smooth="yes"/>
      <point x="-208" y="711"/>
      <point x="-239" y="687"/>
      <point x="-239" y="636" type="curve" smooth="yes"/>
      <point x="-239" y="616"/>
      <point x="-234" y="595"/>
    </contour>
  </outline>
</glyph>
<glyph name="fongman-thai" format="2">
  <advance width="532"/>
  <unicode hex="0E4F"/>
  <outline>
    <contour>
      <point x="266" y="-13" type="curve" smooth="yes"/>
      <point x="416" y="-13"/>
      <point x="480" y="80"/>
      <point x="480" y="228" type="curve" smooth="yes"/>
      <point x="480" y="382"/>
      <point x="416" y="468"/>
      <point x="266" y="468" type="curve" smooth="yes"/>
      <point x="117" y="468"/>
      <point x="52" y="382"/>
      <point x="52" y="228" type="curve" smooth="yes"/>
      <point x="52" y="80"/>
      <point x="117" y="-13"/>
    </contour>
    <contour>
      <point x="266" y="70" type="curve" smooth="yes"/>
      <point x="181" y="70"/>
      <point x="142" y="127"/>
      <point x="142" y="228" type="curve" smooth="yes"/>
      <point x="142" y="336"/>
      <point x="181" y="385"/>
      <point x="266" y="385" type="curve" smooth="yes"/>
      <point x="350" y="385"/>
      <point x="390" y="336"/>
      <point x="390" y="228" type="curve" smooth="yes"/>
      <point x="390" y="127"/>
      <point x="350" y="70"/>
    </contour>
    <contour>
      <point x="266" y="124" type="curve" smooth="yes"/>
      <point x="322" y="124"/>
      <point x="346" y="166"/>
      <point x="346" y="228" type="curve" smooth="yes"/>
      <point x="346" y="295"/>
      <point x="322" y="331"/>
      <point x="266" y="331" type="curve" smooth="yes"/>
      <point x="209" y="331"/>
      <point x="186" y="295"/>
      <point x="186" y="228" type="curve" smooth="yes"/>
      <point x="186" y="166"/>
      <point x="209" y="124"/>
    </contour>
  </outline>
</glyph>
<glyph name="two-thai" format="2">
  <advance width="529"/>
  <unicode hex="0E52"/>
  <outline>
    <contour>
      <point x="270" y="-13" type="curve" smooth="yes"/>
      <point x="429" y="-13"/>
      <point x="483" y="74"/>
      <point x="483" y="217" type="curve" smooth="yes"/>
      <point x="483" y="349" type="line" smooth="yes"/>
      <point x="483" y="433"/>
      <point x="446" y="463"/>
      <point x="398" y="463" type="curve" smooth="yes"/>
      <point x="365" y="463"/>
      <point x="342" y="449"/>
      <point x="332" y="418" type="curve"/>
      <point x="330" y="418" type="line"/>
      <point x="321" y="450"/>
      <point x="299" y="463"/>
      <point x="271" y="463" type="curve" smooth="yes"/>
      <point x="212" y="463"/>
      <point x="187" y="411"/>
      <point x="187" y="330" type="curve" smooth="yes"/>
      <point x="187" y="240"/>
      <point x="225" y="188"/>
      <point x="285" y="188" type="curve" smooth="yes"/>
      <point x="305" y="188"/>
      <point x="322" y="195"/>
      <point x="335" y="206" type="curve"/>
      <point x="317" y="278" type="line"/>
      <point x="309" y="273"/>
      <point x="302" y="271"/>
      <point x="296" y="271" type="curve" smooth="yes"/>
      <point x="279" y="271"/>
      <point x="274" y="291"/>
      <point x="274" y="324" type="curve" smooth="yes"/>
      <point x="274" y="358"/>
      <point x="279" y="376"/>
      <point x="291" y="376" type="curve" smooth="yes"/>
      <point x="304" y="376"/>
      <point x="307" y="360"/>
      <point x="309" y="334" type="curve"/>
      <point x="338" y="334" type="line"/>
      <point x="340" y="360"/>
      <point x="344" y="376"/>
      <point x="356" y="376" type="curve" smooth="yes"/>
      <point x="366" y="376"/>
      <point x="371" y="364"/>
      <point x="371" y="337" type="curve" smooth="yes"/>
      <point x="371" y="229" type="line" smooth="yes"/>
      <point x="371" y="146"/>
      <point x="344" y="93"/>
      <point x="272" y="93" type="curve" smooth="yes"/>
      <point x="196" y="93"/>
      <point x="165" y="147"/>
      <point x="165" y="226" type="curve" smooth="yes"/>
      <point x="165" y="584" type="line"/>
      <point x="46" y="584" type="line"/>
      <point x="46" y="215" type="line" smooth="yes"/>
      <point x="46" y="73"/>
      <point x="112" y="-13"/>
    </contour>
  </outline>
</glyph>
<glyph name="three-thai" format="2">
  <advance width="462"/>
  <unicode hex="0E53"/>
  <outline>
    <contour>
      <point x="174" y="-10" type="curve" smooth="yes"/>
      <point x="201" y="-10"/>
      <point x="228" y="-4"/>
      <point x="243" y="3" type="curve"/>
      <point x="229" y="96" type="line"/>
      <point x="223" y="91"/>
      <point x="216" y="90"/>
      <point x="210" y="90" type="curve" smooth="yes"/>
      <point x="175" y="90"/>
      <point x="162" y="139"/>
      <point x="162" y="237" type="curve" smooth="yes"/>
      <point x="162" y="317"/>
      <point x="171" y="356"/>
      <point x="191" y="356" type="curve" smooth="yes"/>
      <point x="200" y="356"/>
      <point x="209" y="347"/>
      <point x="211" y="309" type="curve"/>
      <point x="252" y="309" type="line"/>
      <point x="255" y="347"/>
      <point x="262" y="356"/>
      <point x="274" y="356" type="curve" smooth="yes"/>
      <point x="285" y="356"/>
      <point x="295" y="349"/>
      <point x="295" y="311" type="curve" smooth="yes"/>
      <point x="295" y="0" type="line"/>
      <point x="415" y="0" type="line"/>
      <point x="415" y="330" type="line" smooth="yes"/>
      <point x="415" y="421"/>
      <point x="384" y="465"/>
      <point x="318" y="465" type="curve" smooth="yes"/>
      <point x="286" y="465"/>
      <point x="245" y="453"/>
      <point x="234" y="411" type="curve"/>
      <point x="232" y="411" type="line"/>
      <point x="211" y="454"/>
      <point x="185" y="465"/>
      <point x="155" y="465" type="curve" smooth="yes"/>
      <point x="78" y="465"/>
      <point x="40" y="394"/>
      <point x="40" y="235" type="curve" smooth="yes"/>
      <point x="40" y="89"/>
      <point x="75" y="-10"/>
    </contour>
  </outline>
</glyph>
<glyph name="four-thai" format="2">
  <advance width="439"/>
  <unicode hex="0E54"/>
  <outline>
    <contour>
      <point x="209" y="0" type="curve" smooth="yes"/>
      <point x="395" y="0" type="line"/>
      <point x="395" y="99" type="line"/>
      <point x="370" y="99" type="line" smooth="yes"/>
      <point x="342" y="99"/>
      <point x="327" y="119"/>
      <point x="327" y="157" type="curve" smooth="yes"/>
      <point x="327" y="187"/>
      <point x="337" y="206"/>
      <point x="354" y="206" type="curve" smooth="yes"/>
      <point x="358" y="206"/>
      <point x="365" y="205"/>
      <point x="369" y="202" type="curve"/>
      <point x="385" y="277" type="line"/>
      <point x="370" y="287"/>
      <point x="349" y="292"/>
      <point x="324" y="292" type="curve" smooth="yes"/>
      <point x="260" y="292"/>
      <point x="228" y="253"/>
      <point x="228" y="178" type="curve" smooth="yes"/>
      <point x="228" y="137"/>
      <point x="236" y="103"/>
      <point x="253" y="86" type="curve"/>
      <point x="263" y="100" type="line"/>
      <point x="225" y="100" type="line" smooth="yes"/>
      <point x="182" y="100"/>
      <point x="162" y="135"/>
      <point x="162" y="219" type="curve" smooth="yes"/>
      <point x="162" y="307"/>
      <point x="187" y="360"/>
      <point x="252" y="360" type="curve" smooth="yes"/>
      <point x="275" y="360" type="line" smooth="yes"/>
      <point x="351" y="360"/>
      <point x="389" y="412"/>
      <point x="389" y="504" type="curve" smooth="yes"/>
      <point x="389" y="584" type="line"/>
      <point x="276" y="584" type="line"/>
      <point x="276" y="532" type="line" smooth="yes"/>
      <point x="276" y="479"/>
      <point x="263" y="460"/>
      <point x="221" y="460" type="curve" smooth="yes"/>
      <point x="194" y="460" type="line" smooth="yes"/>
      <point x="83" y="460"/>
      <point x="40" y="352"/>
      <point x="40" y="223" type="curve" smooth="yes"/>
      <point x="40" y="71"/>
      <point x="92" y="0"/>
    </contour>
  </outline>
</glyph>
<glyph name="five-thai" format="2">
  <advance width="454"/>
  <unicode hex="0E55"/>
  <outline>
    <contour>
      <point x="213" y="0" type="curve" smooth="yes"/>
      <point x="398" y="0" type="line"/>
      <point x="398" y="99" type="line"/>
      <point x="374" y="99" type="line" smooth="yes"/>
      <point x="346" y="99"/>
      <point x="331" y="119"/>
      <point x="331" y="157" type="curve" smooth="yes"/>
      <point x="331" y="187"/>
      <point x="341" y="205"/>
      <point x="358" y="205" type="curve" smooth="yes"/>
      <point x="362" y="205"/>
      <point x="369" y="204"/>
      <point x="373" y="202" type="curve"/>
      <point x="389" y="277" type="line"/>
      <point x="374" y="286"/>
      <point x="352" y="292"/>
      <point x="328" y="292" type="curve" smooth="yes"/>
      <point x="264" y="292"/>
      <point x="231" y="252"/>
      <point x="231" y="178" type="curve" smooth="yes"/>
      <point x="231" y="137"/>
      <point x="240" y="104"/>
      <point x="257" y="82" type="curve"/>
      <point x="267" y="100" type="line"/>
      <point x="229" y="100" type="line" smooth="yes"/>
      <point x="182" y="100"/>
      <point x="162" y="135"/>
      <point x="162" y="219" type="curve" smooth="yes"/>
      <point x="162" y="307"/>
      <point x="187" y="360"/>
      <point x="258" y="360" type="curve" smooth="yes"/>
      <point x="287" y="360" type="line" smooth="yes"/>
      <point x="363" y="360"/>
      <point x="407" y="412"/>
      <point x="407" y="504" type="curve" smooth="yes"/>
      <point x="407" y="584" type="line"/>
      <point x="310" y="584" type="line"/>
      <point x="310" y="548" type="line" smooth="yes"/>
      <point x="310" y="473"/>
      <point x="302" y="454"/>
      <point x="237" y="454" type="curve"/>
      <point x="239" y="437" type="line"/>
      <point x="258" y="443"/>
      <point x="280" y="468"/>
      <point x="280" y="510" type="curve" smooth="yes"/>
      <point x="280" y="560"/>
      <point x="249" y="597"/>
      <point x="193" y="597" type="curve" smooth="yes"/>
      <point x="139" y="597"/>
      <point x="106" y="562"/>
      <point x="106" y="511" type="curve" smooth="yes"/>
      <point x="106" y="460"/>
      <point x="139" y="432"/>
      <point x="176" y="428" type="curve"/>
      <point x="172" y="452" type="line"/>
      <point x="82" y="445"/>
      <point x="40" y="360"/>
      <point x="40" y="225" type="curve" smooth="yes"/>
      <point x="40" y="72"/>
      <point x="91" y="0"/>
    </contour>
    <contour>
      <point x="193" y="468" type="curve" smooth="yes"/>
      <point x="175" y="468"/>
      <point x="167" y="484"/>
      <point x="167" y="505" type="curve" smooth="yes"/>
      <point x="167" y="524"/>
      <point x="175" y="540"/>
      <point x="193" y="540" type="curve" smooth="yes"/>
      <point x="211" y="540"/>
      <point x="221" y="524"/>
      <point x="221" y="505" type="curve" smooth="yes"/>
      <point x="221" y="484"/>
      <point x="211" y="468"/>
    </contour>
  </outline>
</glyph>
<glyph name="six-thai" format="2">
  <advance width="431"/>
  <unicode hex="0E56"/>
  <outline>
    <contour>
      <point x="213" y="-13" type="curve" smooth="yes"/>
      <point x="337" y="-13"/>
      <point x="391" y="76"/>
      <point x="391" y="229" type="curve" smooth="yes"/>
      <point x="391" y="373"/>
      <point x="344" y="465"/>
      <point x="239" y="465" type="curve" smooth="yes"/>
      <point x="187" y="465"/>
      <point x="151" y="442"/>
      <point x="137" y="391" type="curve"/>
      <point x="157" y="391" type="line"/>
      <point x="130" y="584" type="line"/>
      <point x="25" y="584" type="line"/>
      <point x="69" y="298" type="line"/>
      <point x="162" y="298" type="line"/>
      <point x="162" y="340"/>
      <point x="183" y="362"/>
      <point x="210" y="362" type="curve" smooth="yes"/>
      <point x="246" y="362"/>
      <point x="267" y="324"/>
      <point x="267" y="228" type="curve" smooth="yes"/>
      <point x="267" y="138"/>
      <point x="248" y="90"/>
      <point x="206" y="90" type="curve" smooth="yes"/>
      <point x="178" y="90"/>
      <point x="158" y="112"/>
      <point x="139" y="147" type="curve"/>
      <point x="56" y="78" type="line"/>
      <point x="88" y="13"/>
      <point x="144" y="-13"/>
    </contour>
  </outline>
</glyph>
<glyph name="seven-thai" format="2">
  <advance width="613"/>
  <unicode hex="0E57"/>
  <outline>
    <contour>
      <point x="174" y="-10" type="curve" smooth="yes"/>
      <point x="198" y="-10"/>
      <point x="227" y="-4"/>
      <point x="243" y="3" type="curve"/>
      <point x="229" y="96" type="line"/>
      <point x="223" y="91"/>
      <point x="216" y="90"/>
      <point x="210" y="90" type="curve" smooth="yes"/>
      <point x="174" y="90"/>
      <point x="162" y="137"/>
      <point x="162" y="240" type="curve" smooth="yes"/>
      <point x="162" y="318"/>
      <point x="169" y="356"/>
      <point x="190" y="356" type="curve" smooth="yes"/>
      <point x="200" y="356"/>
      <point x="207" y="346"/>
      <point x="210" y="309" type="curve"/>
      <point x="244" y="309" type="line"/>
      <point x="247" y="344"/>
      <point x="252" y="356"/>
      <point x="266" y="356" type="curve" smooth="yes"/>
      <point x="277" y="356"/>
      <point x="285" y="347"/>
      <point x="285" y="313" type="curve" smooth="yes"/>
      <point x="285" y="0" type="line"/>
      <point x="388" y="0" type="line" smooth="yes"/>
      <point x="469" y="0"/>
      <point x="568" y="42"/>
      <point x="568" y="210" type="curve" smooth="yes"/>
      <point x="568" y="584" type="line"/>
      <point x="449" y="584" type="line"/>
      <point x="449" y="200" type="line" smooth="yes"/>
      <point x="449" y="118"/>
      <point x="429" y="97"/>
      <point x="396" y="97" type="curve"/>
      <point x="396" y="355" type="line" smooth="yes"/>
      <point x="396" y="431"/>
      <point x="365" y="465"/>
      <point x="310" y="465" type="curve" smooth="yes"/>
      <point x="281" y="465"/>
      <point x="244" y="455"/>
      <point x="229" y="411" type="curve"/>
      <point x="227" y="411" type="line"/>
      <point x="209" y="454"/>
      <point x="184" y="465"/>
      <point x="154" y="465" type="curve" smooth="yes"/>
      <point x="79" y="465"/>
      <point x="40" y="404"/>
      <point x="40" y="239" type="curve" smooth="yes"/>
      <point x="40" y="85"/>
      <point x="75" y="-10"/>
    </contour>
  </outline>
</glyph>
<glyph name="nine-thai" format="2">
  <advance width="456"/>
  <unicode hex="0E59"/>
  <outline>
    <contour>
      <point x="173" y="-10" type="curve" smooth="yes"/>
      <point x="197" y="-10"/>
      <point x="227" y="-5"/>
      <point x="243" y="3" type="curve"/>
      <point x="229" y="96" type="line"/>
      <point x="223" y="91"/>
      <point x="216" y="90"/>
      <point x="210" y="90" type="curve" smooth="yes"/>
      <point x="176" y="90"/>
      <point x="164" y="141"/>
      <point x="164" y="237" type="curve" smooth="yes"/>
      <point x="164" y="341"/>
      <point x="178" y="365"/>
      <point x="195" y="365" type="curve" smooth="yes"/>
      <point x="207" y="365"/>
      <point x="212" y="354"/>
      <point x="217" y="330" type="curve" smooth="yes"/>
      <point x="296" y="0" type="line"/>
      <point x="410" y="0" type="line"/>
      <point x="329" y="309" type="line" smooth="yes"/>
      <point x="316" y="358"/>
      <point x="325" y="379"/>
      <point x="353" y="379" type="curve" smooth="yes"/>
      <point x="365" y="379" type="line" smooth="yes"/>
      <point x="407" y="379"/>
      <point x="432" y="420"/>
      <point x="432" y="490" type="curve" smooth="yes"/>
      <point x="432" y="584" type="line"/>
      <point x="324" y="584" type="line"/>
      <point x="324" y="508" type="line" smooth="yes"/>
      <point x="324" y="478"/>
      <point x="317" y="465"/>
      <point x="297" y="465" type="curve" smooth="yes"/>
      <point x="293" y="465" type="line" smooth="yes"/>
      <point x="261" y="465"/>
      <point x="242" y="433"/>
      <point x="246" y="394" type="curve"/>
      <point x="262" y="393" type="line"/>
      <point x="245" y="445"/>
      <point x="217" y="465"/>
      <point x="167" y="465" type="curve" smooth="yes"/>
      <point x="79" y="465"/>
      <point x="40" y="402"/>
      <point x="40" y="238" type="curve" smooth="yes"/>
      <point x="40" y="84"/>
      <point x="75" y="-10"/>
    </contour>
  </outline>
</glyph>
<glyph name="angkhankhu-thai" format="2">
  <advance width="679"/>
  <unicode hex="0E5A"/>
  <outline>
    <contour>
      <point x="256" y="0" type="line"/>
      <point x="387" y="0" type="line"/>
      <point x="387" y="517" type="line"/>
      <point x="256" y="517" type="line"/>
      <point x="256" y="390" type="line" smooth="yes"/>
      <point x="256" y="333"/>
      <point x="237" y="304"/>
      <point x="195" y="304" type="curve" smooth="yes"/>
      <point x="156" y="304"/>
      <point x="136" y="330"/>
      <point x="136" y="371" type="curve" smooth="yes"/>
      <point x="136" y="412"/>
      <point x="155" y="432"/>
      <point x="179" y="432" type="curve" smooth="yes"/>
      <point x="184" y="432"/>
      <point x="190" y="431"/>
      <point x="200" y="427" type="curve"/>
      <point x="209" y="515" type="line"/>
      <point x="186" y="524"/>
      <point x="164" y="526"/>
      <point x="149" y="526" type="curve" smooth="yes"/>
      <point x="64" y="526"/>
      <point x="14" y="466"/>
      <point x="14" y="369" type="curve" smooth="yes"/>
      <point x="14" y="254"/>
      <point x="84" y="200"/>
      <point x="164" y="200" type="curve" smooth="yes"/>
      <point x="233" y="200"/>
      <point x="284" y="238"/>
      <point x="285" y="314" type="curve"/>
      <point x="256" y="312" type="line"/>
    </contour>
    <contour>
      <point x="489" y="0" type="line"/>
      <point x="619" y="0" type="line"/>
      <point x="619" y="517" type="line"/>
      <point x="489" y="517" type="line"/>
      <point x="489" y="401" type="line" smooth="yes"/>
      <point x="489" y="339"/>
      <point x="461" y="303"/>
      <point x="420" y="303" type="curve" smooth="yes"/>
      <point x="398" y="303"/>
      <point x="379" y="312"/>
      <point x="359" y="328" type="curve"/>
      <point x="328" y="247" type="line"/>
      <point x="353" y="219"/>
      <point x="384" y="204"/>
      <point x="415" y="204" type="curve" smooth="yes"/>
      <point x="466" y="204"/>
      <point x="512" y="245"/>
      <point x="514" y="325" type="curve"/>
      <point x="489" y="323" type="line"/>
    </contour>
  </outline>
</glyph>
<glyph name="khomut-thai" format="2">
  <advance width="740"/>
  <unicode hex="0E5B"/>
  <outline>
    <contour>
      <point x="204" y="70" type="curve" smooth="yes"/>
      <point x="352" y="70"/>
      <point x="375" y="212"/>
      <point x="381" y="282" type="curve"/>
      <point x="360" y="282" type="line"/>
      <point x="396" y="122" type="line"/>
      <point x="462" y="122" type="line"/>
      <point x="489" y="288" type="line"/>
      <point x="471" y="288" type="line"/>
      <point x="509" y="132" type="line"/>
      <point x="561" y="132" type="line"/>
      <point x="583" y="274" type="line"/>
      <point x="560" y="274" type="line"/>
      <point x="576" y="180"/>
      <point x="611" y="135"/>
      <point x="657" y="135" type="curve" smooth="yes"/>
      <point x="674" y="135"/>
      <point x="685" y="140"/>
      <point x="694" y="147" type="curve"/>
      <point x="694" y="236" type="line"/>
      <point x="689" y="233"/>
      <point x="682" y="230"/>
      <point x="672" y="230" type="curve" smooth="yes"/>
      <point x="632" y="230"/>
      <point x="627" y="265"/>
      <point x="617" y="311" type="curve" smooth="yes"/>
      <point x="613" y="329" type="line"/>
      <point x="557" y="329" type="line"/>
      <point x="529" y="208" type="line"/>
      <point x="548" y="209" type="line"/>
      <point x="511" y="344" type="line"/>
      <point x="448" y="344" type="line"/>
      <point x="419" y="195" type="line"/>
      <point x="438" y="195" type="line"/>
      <point x="395" y="353" type="line"/>
      <point x="317" y="353" type="line"/>
      <point x="323" y="243"/>
      <point x="296" y="169"/>
      <point x="223" y="169" type="curve" smooth="yes"/>
      <point x="179" y="169"/>
      <point x="153" y="196"/>
      <point x="153" y="268" type="curve" smooth="yes"/>
      <point x="153" y="302"/>
      <point x="159" y="335"/>
      <point x="180" y="335" type="curve" smooth="yes"/>
      <point x="195" y="335"/>
      <point x="205" y="321"/>
      <point x="205" y="294" type="curve" smooth="yes"/>
      <point x="205" y="280"/>
      <point x="202" y="265"/>
      <point x="199" y="256" type="curve"/>
      <point x="274" y="227" type="line"/>
      <point x="283" y="251"/>
      <point x="289" y="279"/>
      <point x="289" y="310" type="curve" smooth="yes"/>
      <point x="289" y="386"/>
      <point x="252" y="431"/>
      <point x="174" y="431" type="curve" smooth="yes"/>
      <point x="82" y="431"/>
      <point x="44" y="361"/>
      <point x="44" y="264" type="curve" smooth="yes"/>
      <point x="44" y="143"/>
      <point x="96" y="70"/>
    </contour>
  </outline>
</glyph>
<glyph name="doChada-thai.short" format="2">
  <advance width="525"/>
  <anchor x="466" y="-71" name="bottom"/>
  <anchor x="442" y="505" name="top"/>
  <outline>
    <contour>
      <point x="75" y="-120" type="line"/>
      <point x="196" y="-120" type="line"/>
      <point x="196" y="-111" type="line" smooth="yes"/>
      <point x="196" y="-95"/>
      <point x="211" y="-83"/>
      <point x="245" y="-83" type="curve" smooth="yes"/>
      <point x="281" y="-83"/>
      <point x="329" y="-97"/>
      <point x="351" y="-120" type="curve"/>
      <point x="466" y="-120" type="line"/>
      <point x="466" y="331" type="line" smooth="yes"/>
      <point x="466" y="464"/>
      <point x="389" y="529"/>
      <point x="263" y="529" type="curve" smooth="yes"/>
      <point x="125" y="529"/>
      <point x="57" y="452"/>
      <point x="57" y="360" type="curve" smooth="yes"/>
      <point x="57" y="336" type="line"/>
      <point x="144" y="298" type="line"/>
      <point x="143" y="294" type="line"/>
      <point x="100" y="281"/>
      <point x="79" y="249"/>
      <point x="79" y="186" type="curve" smooth="yes"/>
      <point x="79" y="122" type="line" smooth="yes"/>
      <point x="79" y="99"/>
      <point x="72" y="88"/>
      <point x="54" y="88" type="curve" smooth="yes"/>
      <point x="47" y="88"/>
      <point x="41" y="90"/>
      <point x="34" y="93" type="curve"/>
      <point x="22" y="15" type="line"/>
      <point x="41" y="4"/>
      <point x="67" y="-4"/>
      <point x="99" y="-4" type="curve" smooth="yes"/>
      <point x="161" y="-4"/>
      <point x="206" y="26"/>
      <point x="206" y="107" type="curve" smooth="yes"/>
      <point x="206" y="181" type="line" smooth="yes"/>
      <point x="206" y="233"/>
      <point x="219" y="256"/>
      <point x="248" y="256" type="curve"/>
      <point x="256" y="316" type="line"/>
      <point x="191" y="354" type="line"/>
      <point x="193" y="390"/>
      <point x="213" y="418"/>
      <point x="260" y="418" type="curve" smooth="yes"/>
      <point x="310" y="418"/>
      <point x="335" y="387"/>
      <point x="335" y="323" type="curve" smooth="yes"/>
      <point x="335" y="-85" type="line"/>
      <point x="360" y="-76" type="line"/>
      <point x="332" y="-41"/>
      <point x="276" y="-13"/>
      <point x="203" y="-13" type="curve" smooth="yes"/>
      <point x="127" y="-13"/>
      <point x="75" y="-44"/>
      <point x="75" y="-104" type="curve" smooth="yes"/>
    </contour>
  </outline>
</glyph>
<glyph name="loChula-thai.short" format="2">
  <advance width="585"/>
  <anchor x="496" y="0" name="bottom"/>
  <anchor x="513" y="505" name="top"/>
  <outline>
    <contour>
      <point x="78" y="0" type="line"/>
      <point x="219" y="0" type="line"/>
      <point x="258" y="142" type="line" smooth="yes"/>
      <point x="269" y="181"/>
      <point x="279" y="217"/>
      <point x="287" y="263" type="curve"/>
      <point x="291" y="263" type="line"/>
      <point x="299" y="217"/>
      <point x="309" y="181"/>
      <point x="319" y="141" type="curve" smooth="yes"/>
      <point x="355" y="0" type="line"/>
      <point x="497" y="0" type="line"/>
      <point x="538" y="326" type="line" smooth="yes"/>
      <point x="544" y="373"/>
      <point x="533" y="419"/>
      <point x="486" y="436" type="curve"/>
      <point x="486" y="440" type="line"/>
      <point x="547" y="449"/>
      <point x="571" y="494"/>
      <point x="571" y="550" type="curve"/>
      <point x="447" y="550" type="line"/>
      <point x="444" y="513"/>
      <point x="436" y="494"/>
      <point x="394" y="494" type="curve" smooth="yes"/>
      <point x="330" y="494" type="line"/>
      <point x="330" y="408" type="line"/>
      <point x="373" y="408" type="line" smooth="yes"/>
      <point x="414" y="408"/>
      <point x="425" y="382"/>
      <point x="419" y="332" type="curve" smooth="yes"/>
      <point x="411" y="270" type="line" smooth="yes"/>
      <point x="405" y="222"/>
      <point x="401" y="180"/>
      <point x="399" y="120" type="curve"/>
      <point x="396" y="120" type="line"/>
      <point x="383" y="176"/>
      <point x="371" y="229"/>
      <point x="358" y="269" type="curve" smooth="yes"/>
      <point x="326" y="370" type="line"/>
      <point x="250" y="370" type="line"/>
      <point x="220" y="268" type="line" smooth="yes"/>
      <point x="203" y="209"/>
      <point x="191" y="164"/>
      <point x="181" y="125" type="curve"/>
      <point x="178" y="125" type="line"/>
      <point x="179" y="190"/>
      <point x="180" y="247"/>
      <point x="176" y="300" type="curve" smooth="yes"/>
      <point x="161" y="517" type="line"/>
      <point x="27" y="517" type="line"/>
    </contour>
  </outline>
</glyph>
<glyph name="lu-thai.short" format="2">
  <advance width="525"/>
  <anchor x="466" y="-71" name="bottom"/>
  <anchor x="442" y="507" name="top"/>
  <outline>
    <contour>
      <point x="335" y="-120" type="line"/>
      <point x="466" y="-120" type="line"/>
      <point x="466" y="94" type="line"/>
      <point x="335" y="94" type="line"/>
    </contour>
    <component base="phoSamphao-thai"/>
  </outline>
</glyph>
<glyph name="lu_lakkhangyao-thai" format="2">
  <advance width="796"/>
  <outline>
    <contour>
      <point x="335" y="-199" type="line"/>
      <point x="466" y="-199" type="line"/>
      <point x="466" y="317" type="line" smooth="yes"/>
      <point x="466" y="387"/>
      <point x="490" y="418"/>
      <point x="536" y="418" type="curve" smooth="yes"/>
      <point x="581" y="418"/>
      <point x="606" y="388"/>
      <point x="606" y="319" type="curve" smooth="yes"/>
      <point x="606" y="-199" type="line"/>
      <point x="737" y="-199" type="line"/>
      <point x="737" y="336" type="line" smooth="yes"/>
      <point x="737" y="453"/>
      <point x="681" y="529"/>
      <point x="561" y="529" type="curve" smooth="yes"/>
      <point x="487" y="529"/>
      <point x="435" y="497"/>
      <point x="410" y="444" type="curve"/>
      <point x="407" y="444" type="line"/>
      <point x="384" y="498"/>
      <point x="331" y="529"/>
      <point x="258" y="529" type="curve" smooth="yes"/>
      <point x="127" y="529"/>
      <point x="57" y="452"/>
      <point x="57" y="360" type="curve" smooth="yes"/>
      <point x="57" y="336" type="line"/>
      <point x="144" y="298" type="line"/>
      <point x="143" y="294" type="line"/>
      <point x="100" y="281"/>
      <point x="79" y="249"/>
      <point x="79" y="186" type="curve" smooth="yes"/>
      <point x="79" y="116" type="line" smooth="yes"/>
      <point x="79" y="93"/>
      <point x="72" y="83"/>
      <point x="54" y="83" type="curve" smooth="yes"/>
      <point x="47" y="83"/>
      <point x="41" y="84"/>
      <point x="34" y="87" type="curve"/>
      <point x="22" y="10" type="line"/>
      <point x="41" y="-2"/>
      <point x="67" y="-9"/>
      <point x="99" y="-9" type="curve" smooth="yes"/>
      <point x="161" y="-9"/>
      <point x="206" y="20"/>
      <point x="206" y="101" type="curve" smooth="yes"/>
      <point x="206" y="181" type="line" smooth="yes"/>
      <point x="206" y="233"/>
      <point x="219" y="256"/>
      <point x="248" y="256" type="curve"/>
      <point x="256" y="316" type="line"/>
      <point x="191" y="354" type="line"/>
      <point x="193" y="390"/>
      <point x="213" y="418"/>
      <point x="260" y="418" type="curve" smooth="yes"/>
      <point x="310" y="418"/>
      <point x="335" y="387"/>
      <point x="335" y="319" type="curve" smooth="yes"/>
    </contour>
  </outline>
</glyph>
<glyph name="macronbelowcomb.alt" format="2">
  <anchor x="-69" y="0" name="_bottom"/>
  <outline>
    <contour>
      <point x="-120" y="-87" type="line"/>
      <point x="-627" y="-87" type="line"/>
      <point x="-627" y="-182" type="line"/>
      <point x="-120" y="-182" type="line"/>
    </contour>
  </outline>
</glyph>
<glyph name="maiChattawa-thai.narrow" format="2">
  <anchor x="-225" y="505" name="_top"/>
  <anchor x="-276" y="813" name="top"/>
  <outline>
    <contour>
      <point x="-384" y="605" type="line"/>
      <point x="-280" y="605" type="line"/>
      <point x="-280" y="829" type="line"/>
      <point x="-384" y="829" type="line"/>
    </contour>
    <contour>
      <point x="-438" y="675" type="line"/>
      <point x="-226" y="675" type="line"/>
      <point x="-226" y="758" type="line"/>
      <point x="-438" y="758" type="line"/>
    </contour>
  </outline>
</glyph>
<glyph name="maiChattawa-thai.small" format="2">
  <anchor x="-67" y="741" name="_top"/>
  <anchor x="-66" y="1003" name="top"/>
  <outline>
    <contour>
      <point x="-175" y="841" type="line"/>
      <point x="-72" y="841" type="line"/>
      <point x="-72" y="1023" type="line"/>
      <point x="-175" y="1023" type="line"/>
    </contour>
    <contour>
      <point x="-228" y="892" type="line"/>
      <point x="-19" y="892" type="line"/>
      <point x="-19" y="972" type="line"/>
      <point x="-228" y="972" type="line"/>
    </contour>
  </outline>
</glyph>
<glyph name="maiEk-thai.narrow" format="2">
  <anchor x="-225" y="505" name="_top"/>
  <anchor x="-241" y="814" name="top"/>
  <outline>
    <contour>
      <point x="-358" y="605" type="line"/>
      <point x="-240" y="605" type="line"/>
      <point x="-240" y="829" type="line"/>
      <point x="-358" y="829" type="line"/>
    </contour>
  </outline>
</glyph>
<glyph name="maiEk-thai.small" format="2">
  <anchor x="-67" y="741" name="_top"/>
  <anchor x="-65" y="1005" name="top"/>
  <outline>
    <contour>
      <point x="-176" y="842" type="line"/>
      <point x="-65" y="842" type="line"/>
      <point x="-65" y="1024" type="line"/>
      <point x="-176" y="1024" type="line"/>
    </contour>
  </outline>
</glyph>
<glyph name="maiHanaKat-thai.narrow" format="2">
  <anchor x="-225" y="505" name="_top"/>
  <anchor x="-236" y="708" name="top"/>
  <outline>
    <contour>
      <point x="-357" y="605" type="curve" smooth="yes"/>
      <point x="-225" y="605" type="line"/>
      <point x="-225" y="697" type="line"/>
      <point x="-322" y="697" type="line" smooth="yes"/>
      <point x="-344" y="697"/>
      <point x="-352" y="708"/>
      <point x="-352" y="727" type="curve" smooth="yes"/>
      <point x="-352" y="735"/>
      <point x="-351" y="747"/>
      <point x="-349" y="755" type="curve"/>
      <point x="-442" y="769" type="line"/>
      <point x="-452" y="747"/>
      <point x="-458" y="720"/>
      <point x="-458" y="698" type="curve" smooth="yes"/>
      <point x="-458" y="651"/>
      <point x="-434" y="605"/>
    </contour>
  </outline>
</glyph>
<glyph name="maiTho-thai.narrow" format="2">
  <anchor x="-225" y="505" name="_top"/>
  <anchor x="-272" y="814" name="top"/>
  <outline>
    <contour>
      <point x="-439" y="604" type="line"/>
      <point x="-225" y="604" type="line"/>
      <point x="-225" y="697" type="line"/>
      <point x="-326" y="697" type="line"/>
      <point x="-323" y="675" type="line"/>
      <point x="-294" y="690"/>
      <point x="-286" y="718"/>
      <point x="-286" y="743" type="curve" smooth="yes"/>
      <point x="-286" y="798"/>
      <point x="-315" y="827"/>
      <point x="-364" y="827" type="curve" smooth="yes"/>
      <point x="-387" y="827"/>
      <point x="-424" y="821"/>
      <point x="-446" y="799" type="curve"/>
      <point x="-431" y="734" type="line"/>
      <point x="-424" y="738"/>
      <point x="-414" y="743"/>
      <point x="-406" y="743" type="curve" smooth="yes"/>
      <point x="-393" y="743"/>
      <point x="-384" y="733"/>
      <point x="-384" y="713" type="curve" smooth="yes"/>
      <point x="-384" y="676"/>
      <point x="-421" y="661"/>
      <point x="-439" y="653" type="curve"/>
    </contour>
  </outline>
</glyph>
<glyph name="maiTho-thai.small" format="2">
  <anchor x="-66" y="741" name="_top"/>
  <anchor x="-66" y="1005" name="top"/>
  <outline>
    <contour>
      <point x="-219" y="842" type="line"/>
      <point x="5" y="842" type="line"/>
      <point x="5" y="923" type="line"/>
      <point x="-114" y="923" type="line"/>
      <point x="-109" y="903" type="line"/>
      <point x="-86" y="916"/>
      <point x="-82" y="940"/>
      <point x="-82" y="960" type="curve" smooth="yes"/>
      <point x="-82" y="1005"/>
      <point x="-109" y="1024"/>
      <point x="-152" y="1024" type="curve" smooth="yes"/>
      <point x="-173" y="1024"/>
      <point x="-207" y="1020"/>
      <point x="-227" y="1002" type="curve"/>
      <point x="-213" y="946" type="line"/>
      <point x="-207" y="952"/>
      <point x="-198" y="956"/>
      <point x="-190" y="956" type="curve" smooth="yes"/>
      <point x="-180" y="956"/>
      <point x="-171" y="947"/>
      <point x="-171" y="932" type="curve" smooth="yes"/>
      <point x="-171" y="901"/>
      <point x="-205" y="888"/>
      <point x="-219" y="882" type="curve"/>
    </contour>
  </outline>
</glyph>
<glyph name="maiTri-thai.narrow" format="2">
  <anchor x="-225" y="505" name="_top"/>
  <anchor x="-307" y="814" name="top"/>
  <outline>
    <contour>
      <point x="-418" y="600" type="curve" smooth="yes"/>
      <point x="-403" y="600"/>
      <point x="-384" y="604"/>
      <point x="-377" y="611" type="curve"/>
      <point x="-381" y="672" type="line"/>
      <point x="-388" y="669"/>
      <point x="-392" y="669"/>
      <point x="-396" y="669" type="curve" smooth="yes"/>
      <point x="-411" y="669"/>
      <point x="-419" y="688"/>
      <point x="-419" y="708" type="curve" smooth="yes"/>
      <point x="-419" y="731"/>
      <point x="-410" y="746"/>
      <point x="-400" y="748" type="curve"/>
      <point x="-377" y="725" type="line"/>
      <point x="-374" y="725" type="line"/>
      <point x="-350" y="748" type="line"/>
      <point x="-341" y="746"/>
      <point x="-330" y="733"/>
      <point x="-330" y="707" type="curve" smooth="yes"/>
      <point x="-330" y="683"/>
      <point x="-339" y="672"/>
      <point x="-352" y="665" type="curve"/>
      <point x="-352" y="605" type="line"/>
      <point x="-220" y="605" type="line"/>
      <point x="-220" y="688" type="line"/>
      <point x="-270" y="688" type="line"/>
      <point x="-267" y="669" type="line"/>
      <point x="-258" y="684"/>
      <point x="-251" y="705"/>
      <point x="-251" y="734" type="curve" smooth="yes"/>
      <point x="-251" y="784"/>
      <point x="-274" y="821"/>
      <point x="-337" y="825" type="curve"/>
      <point x="-376" y="788" type="line"/>
      <point x="-419" y="825" type="line"/>
      <point x="-468" y="821"/>
      <point x="-501" y="781"/>
      <point x="-501" y="710" type="curve" smooth="yes"/>
      <point x="-501" y="642"/>
      <point x="-470" y="600"/>
    </contour>
  </outline>
</glyph>
<glyph name="maiTri-thai.small" format="2">
  <anchor x="-65" y="741" name="_top"/>
  <anchor x="-65" y="1004" name="top"/>
  <outline>
    <contour>
      <point x="-197" y="838" type="curve" smooth="yes"/>
      <point x="-181" y="838"/>
      <point x="-163" y="842"/>
      <point x="-155" y="848" type="curve"/>
      <point x="-160" y="901" type="line"/>
      <point x="-164" y="899"/>
      <point x="-169" y="898"/>
      <point x="-173" y="898" type="curve" smooth="yes"/>
      <point x="-186" y="898"/>
      <point x="-196" y="910"/>
      <point x="-196" y="928" type="curve" smooth="yes"/>
      <point x="-196" y="946"/>
      <point x="-188" y="959"/>
      <point x="-179" y="959" type="curve"/>
      <point x="-150" y="935" type="line"/>
      <point x="-146" y="935" type="line"/>
      <point x="-119" y="959" type="line"/>
      <point x="-110" y="957"/>
      <point x="-102" y="945"/>
      <point x="-102" y="928" type="curve" smooth="yes"/>
      <point x="-102" y="910"/>
      <point x="-112" y="898"/>
      <point x="-122" y="895" type="curve"/>
      <point x="-122" y="842" type="line"/>
      <point x="27" y="842" type="line"/>
      <point x="27" y="915" type="line"/>
      <point x="-49" y="915" type="line"/>
      <point x="-46" y="899" type="line"/>
      <point x="-36" y="906"/>
      <point x="-26" y="925"/>
      <point x="-26" y="953" type="curve" smooth="yes"/>
      <point x="-26" y="1003"/>
      <point x="-62" y="1024"/>
      <point x="-114" y="1024" type="curve"/>
      <point x="-148" y="989" type="line"/>
      <point x="-184" y="1024" type="line"/>
      <point x="-248" y="1024"/>
      <point x="-276" y="981"/>
      <point x="-276" y="930" type="curve" smooth="yes"/>
      <point x="-276" y="880"/>
      <point x="-254" y="838"/>
    </contour>
  </outline>
</glyph>
<glyph name="maitaikhu-thai.narrow" format="2">
  <anchor x="-225" y="505" name="_top"/>
  <anchor x="-272" y="793" name="top"/>
  <outline>
    <contour>
      <point x="-297" y="595" type="curve" smooth="yes"/>
      <point x="-253" y="595"/>
      <point x="-225" y="628"/>
      <point x="-225" y="699" type="curve" smooth="yes"/>
      <point x="-225" y="718" type="line"/>
      <point x="-301" y="718" type="line"/>
      <point x="-301" y="703" type="line" smooth="yes"/>
      <point x="-301" y="682"/>
      <point x="-309" y="667"/>
      <point x="-322" y="667" type="curve" smooth="yes"/>
      <point x="-338" y="667"/>
      <point x="-347" y="685"/>
      <point x="-348" y="714" type="curve"/>
      <point x="-364" y="714" type="line"/>
      <point x="-393" y="670" type="line"/>
      <point x="-407" y="670"/>
      <point x="-415" y="689"/>
      <point x="-415" y="713" type="curve" smooth="yes"/>
      <point x="-415" y="747"/>
      <point x="-402" y="763"/>
      <point x="-385" y="763" type="curve" smooth="yes"/>
      <point x="-226" y="763" type="line"/>
      <point x="-226" y="834" type="line"/>
      <point x="-404" y="834" type="line" smooth="yes"/>
      <point x="-451" y="834"/>
      <point x="-493" y="796"/>
      <point x="-493" y="716" type="curve" smooth="yes"/>
      <point x="-493" y="639"/>
      <point x="-454" y="598"/>
      <point x="-392" y="598" type="curve"/>
      <point x="-360" y="640" type="line"/>
      <point x="-347" y="611"/>
      <point x="-326" y="595"/>
    </contour>
  </outline>
</glyph>
<glyph name="phinthu-thai.small" format="2">
  <anchor x="-59" y="-71" name="_bottom"/>
  <anchor x="-60" y="-216" name="bottom"/>
  <outline>
    <contour>
      <point x="-123" y="-259" type="curve" smooth="yes"/>
      <point x="-82" y="-259"/>
      <point x="-58" y="-235"/>
      <point x="-58" y="-196" type="curve" smooth="yes"/>
      <point x="-58" y="-157"/>
      <point x="-82" y="-133"/>
      <point x="-123" y="-133" type="curve" smooth="yes"/>
      <point x="-165" y="-133"/>
      <point x="-189" y="-157"/>
      <point x="-189" y="-196" type="curve" smooth="yes"/>
      <point x="-189" y="-235"/>
      <point x="-165" y="-259"/>
    </contour>
  </outline>
</glyph>
<glyph name="ru_lakkhangyao-thai" format="2">
  <advance width="784"/>
  <outline>
    <contour>
      <point x="324" y="-199" type="line"/>
      <point x="454" y="-199" type="line"/>
      <point x="454" y="317" type="line" smooth="yes"/>
      <point x="454" y="387"/>
      <point x="479" y="418"/>
      <point x="525" y="418" type="curve" smooth="yes"/>
      <point x="570" y="418"/>
      <point x="595" y="388"/>
      <point x="595" y="319" type="curve" smooth="yes"/>
      <point x="595" y="-199" type="line"/>
      <point x="725" y="-199" type="line"/>
      <point x="725" y="336" type="line" smooth="yes"/>
      <point x="725" y="453"/>
      <point x="670" y="529"/>
      <point x="550" y="529" type="curve" smooth="yes"/>
      <point x="476" y="529"/>
      <point x="424" y="497"/>
      <point x="399" y="444" type="curve"/>
      <point x="396" y="444" type="line"/>
      <point x="369" y="498"/>
      <point x="318" y="529"/>
      <point x="241" y="529" type="curve" smooth="yes"/>
      <point x="118" y="529"/>
      <point x="46" y="452"/>
      <point x="46" y="360" type="curve" smooth="yes"/>
      <point x="46" y="336" type="line"/>
      <point x="132" y="298" type="line"/>
      <point x="131" y="294" type="line"/>
      <point x="81" y="277"/>
      <point x="53" y="244"/>
      <point x="53" y="170" type="curve" smooth="yes"/>
      <point x="53" y="110" type="line" smooth="yes"/>
      <point x="53" y="28"/>
      <point x="97" y="-9"/>
      <point x="171" y="-9" type="curve" smooth="yes"/>
      <point x="202" y="-9"/>
      <point x="230" y="-3"/>
      <point x="250" y="9" type="curve"/>
      <point x="238" y="91" type="line"/>
      <point x="230" y="88"/>
      <point x="220" y="86"/>
      <point x="211" y="86" type="curve" smooth="yes"/>
      <point x="189" y="86"/>
      <point x="179" y="97"/>
      <point x="179" y="124" type="curve" smooth="yes"/>
      <point x="179" y="184" type="line" smooth="yes"/>
      <point x="179" y="236"/>
      <point x="198" y="255"/>
      <point x="237" y="256" type="curve"/>
      <point x="245" y="315" type="line"/>
      <point x="180" y="354" type="line"/>
      <point x="182" y="390"/>
      <point x="202" y="418"/>
      <point x="249" y="418" type="curve" smooth="yes"/>
      <point x="298" y="418"/>
      <point x="324" y="387"/>
      <point x="324" y="319" type="curve" smooth="yes"/>
    </contour>
  </outline>
</glyph>
<glyph name="saraIi-thai.narrow" format="2">
  <anchor x="-225" y="505" name="_top"/>
  <anchor x="-225" y="741" name="top"/>
  <outline>
    <contour>
      <point x="-527" y="605" type="line"/>
      <point x="-225" y="605" type="line"/>
      <point x="-225" y="699" type="line"/>
      <point x="-459" y="699" type="line"/>
      <point x="-527" y="658" type="line"/>
    </contour>
    <contour>
      <point x="-330" y="662" type="line"/>
      <point x="-225" y="662" type="line"/>
      <point x="-225" y="774" type="line"/>
      <point x="-330" y="774" type="line"/>
    </contour>
  </outline>
</glyph>
<glyph name="saraU-thai.small" format="2">
  <anchor x="-59" y="-71" name="_bottom"/>
  <anchor x="-59" y="-221" name="bottom"/>
  <outline>
    <contour>
      <point x="-170" y="-261" type="line"/>
      <point x="-59" y="-261" type="line"/>
      <point x="-59" y="-207" type="line" smooth="yes"/>
      <point x="-59" y="-163"/>
      <point x="-78" y="-136"/>
      <point x="-133" y="-136" type="curve" smooth="yes"/>
      <point x="-163" y="-136"/>
      <point x="-194" y="-143"/>
      <point x="-209" y="-150" type="curve"/>
      <point x="-204" y="-220" type="line"/>
      <point x="-199" y="-218"/>
      <point x="-193" y="-216"/>
      <point x="-187" y="-216" type="curve" smooth="yes"/>
      <point x="-175" y="-216"/>
      <point x="-170" y="-224"/>
      <point x="-170" y="-241" type="curve" smooth="yes"/>
    </contour>
  </outline>
</glyph>
<glyph name="saraUe-thai.narrow" format="2">
  <anchor x="-225" y="505" name="_top"/>
  <anchor x="-225" y="741" name="top"/>
  <outline>
    <contour>
      <point x="-527" y="605" type="line"/>
      <point x="-290" y="605" type="line" smooth="yes"/>
      <point x="-236" y="605"/>
      <point x="-210" y="644"/>
      <point x="-210" y="696" type="curve" smooth="yes"/>
      <point x="-210" y="750"/>
      <point x="-241" y="790"/>
      <point x="-291" y="790" type="curve" smooth="yes"/>
      <point x="-340" y="790"/>
      <point x="-369" y="753"/>
      <point x="-369" y="703" type="curve" smooth="yes"/>
      <point x="-369" y="693"/>
      <point x="-368" y="681"/>
      <point x="-364" y="668" type="curve"/>
      <point x="-341" y="699" type="line"/>
      <point x="-459" y="699" type="line"/>
      <point x="-527" y="658" type="line"/>
    </contour>
    <contour>
      <point x="-291" y="656" type="curve" smooth="yes"/>
      <point x="-314" y="656"/>
      <point x="-325" y="674"/>
      <point x="-325" y="697" type="curve" smooth="yes"/>
      <point x="-325" y="720"/>
      <point x="-313" y="737"/>
      <point x="-293" y="737" type="curve" smooth="yes"/>
      <point x="-272" y="737"/>
      <point x="-259" y="720"/>
      <point x="-259" y="696" type="curve" smooth="yes"/>
      <point x="-259" y="673"/>
      <point x="-270" y="656"/>
    </contour>
  </outline>
</glyph>
<glyph name="saraUu-thai.small" format="2">
  <anchor x="-59" y="-71" name="_bottom"/>
  <anchor x="-59" y="-212" name="bottom"/>
  <outline>
    <contour>
      <point x="-187" y="-265" type="curve" smooth="yes"/>
      <point x="-96" y="-265"/>
      <point x="-59" y="-239"/>
      <point x="-59" y="-193" type="curve" smooth="yes"/>
      <point x="-59" y="-136" type="line"/>
      <point x="-164" y="-136" type="line"/>
      <point x="-164" y="-179" type="line" smooth="yes"/>
      <point x="-164" y="-198"/>
      <point x="-170" y="-206"/>
      <point x="-190" y="-206" type="curve" smooth="yes"/>
      <point x="-210" y="-206"/>
      <point x="-216" y="-199"/>
      <point x="-216" y="-182" type="curve" smooth="yes"/>
      <point x="-216" y="-172" type="line" smooth="yes"/>
      <point x="-216" y="-150"/>
      <point x="-239" y="-133"/>
      <point x="-280" y="-133" type="curve" smooth="yes"/>
      <point x="-300" y="-133"/>
      <point x="-324" y="-137"/>
      <point x="-339" y="-142" type="curve"/>
      <point x="-335" y="-184" type="line"/>
      <point x="-322" y="-181"/>
      <point x="-314" y="-184"/>
      <point x="-314" y="-203" type="curve" smooth="yes"/>
      <point x="-314" y="-208" type="line" smooth="yes"/>
      <point x="-314" y="-241"/>
      <point x="-275" y="-265"/>
    </contour>
  </outline>
</glyph>
<glyph name="thanthakhat-thai.narrow" format="2">
  <anchor x="-238" y="505" name="_top"/>
  <anchor x="-242" y="713" name="top"/>
  <outline>
    <contour>
      <point x="-408" y="582" type="curve"/>
      <point x="-308" y="600" type="line"/>
      <point x="-312" y="610"/>
      <point x="-314" y="621"/>
      <point x="-314" y="631" type="curve" smooth="yes"/>
      <point x="-314" y="653"/>
      <point x="-302" y="661"/>
      <point x="-282" y="661" type="curve" smooth="yes"/>
      <point x="-225" y="661" type="line"/>
      <point x="-225" y="757" type="line"/>
      <point x="-320" y="757" type="line" smooth="yes"/>
      <point x="-395" y="757"/>
      <point x="-424" y="713"/>
      <point x="-424" y="659" type="curve" smooth="yes"/>
      <point x="-424" y="630"/>
      <point x="-417" y="600"/>
    </contour>
  </outline>
</glyph>
<glyph name="thanthakhat-thai.small" format="2">
  <anchor x="-65" y="744" name="_top"/>
  <anchor x="-65" y="1005" name="top"/>
  <outline>
    <contour>
      <point x="-190" y="808" type="curve"/>
      <point x="-102" y="830" type="line"/>
      <point x="-106" y="840"/>
      <point x="-109" y="854"/>
      <point x="-109" y="864" type="curve" smooth="yes"/>
      <point x="-109" y="889"/>
      <point x="-96" y="900"/>
      <point x="-69" y="900" type="curve" smooth="yes"/>
      <point x="5" y="900" type="line"/>
      <point x="5" y="985" type="line"/>
      <point x="-81" y="985" type="line" smooth="yes"/>
      <point x="-182" y="985"/>
      <point x="-209" y="938"/>
      <point x="-209" y="887" type="curve" smooth="yes"/>
      <point x="-209" y="861"/>
      <point x="-203" y="831"/>
    </contour>
  </outline>
</glyph>
<glyph name="thoThan-thai.less" format="2">
  <advance width="469"/>
  <anchor x="379" y="0" name="bottom"/>
  <anchor x="424" y="505" name="top"/>
  <outline>
    <contour>
      <point x="92" y="0" type="line"/>
      <point x="201" y="0" type="line" smooth="yes"/>
      <point x="360" y="0"/>
      <point x="424" y="95"/>
      <point x="424" y="256" type="curve" smooth="yes"/>
      <point x="424" y="364"/>
      <point x="392" y="427"/>
      <point x="346" y="451" type="curve"/>
      <point x="328" y="509"/>
      <point x="273" y="529"/>
      <point x="200" y="529" type="curve" smooth="yes"/>
      <point x="126" y="529"/>
      <point x="73" y="510"/>
      <point x="37" y="489" type="curve"/>
      <point x="37" y="373" type="line"/>
      <point x="71" y="399"/>
      <point x="115" y="419"/>
      <point x="173" y="419" type="curve" smooth="yes"/>
      <point x="249" y="419"/>
      <point x="292" y="378"/>
      <point x="292" y="259" type="curve" smooth="yes"/>
      <point x="292" y="155"/>
      <point x="262" y="105"/>
      <point x="214" y="105" type="curve" smooth="yes"/>
      <point x="209" y="105" type="line"/>
      <point x="209" y="303" type="line"/>
      <point x="50" y="303" type="line"/>
      <point x="50" y="217" type="line"/>
      <point x="92" y="217" type="line"/>
    </contour>
    <contour>
      <point x="346" y="415" type="line"/>
      <point x="422" y="439"/>
      <point x="448" y="492"/>
      <point x="448" y="550" type="curve"/>
      <point x="337" y="550" type="line"/>
      <point x="335" y="516"/>
      <point x="315" y="494"/>
      <point x="275" y="480" type="curve"/>
    </contour>
  </outline>
</glyph>
<glyph name="toPatak-thai.short" format="2">
  <advance width="525"/>
  <anchor x="466" y="-71" name="bottom"/>
  <anchor x="442" y="505" name="top"/>
  <outline>
    <contour>
      <point x="50" y="-120" type="line"/>
      <point x="152" y="-120" type="line"/>
      <point x="152" y="-116" type="line" smooth="yes"/>
      <point x="152" y="-96"/>
      <point x="164" y="-85"/>
      <point x="183" y="-85" type="curve" smooth="yes"/>
      <point x="205" y="-85"/>
      <point x="221" y="-93"/>
      <point x="233" y="-120" type="curve"/>
      <point x="256" y="-120" type="line"/>
      <point x="297" y="-81" type="line"/>
      <point x="348" y="-120" type="line"/>
      <point x="466" y="-120" type="line"/>
      <point x="466" y="331" type="line" smooth="yes"/>
      <point x="466" y="464"/>
      <point x="390" y="529"/>
      <point x="262" y="529" type="curve" smooth="yes"/>
      <point x="126" y="529"/>
      <point x="57" y="452"/>
      <point x="57" y="360" type="curve" smooth="yes"/>
      <point x="57" y="336" type="line"/>
      <point x="144" y="298" type="line"/>
      <point x="143" y="294" type="line"/>
      <point x="100" y="281"/>
      <point x="79" y="249"/>
      <point x="79" y="186" type="curve" smooth="yes"/>
      <point x="79" y="122" type="line" smooth="yes"/>
      <point x="79" y="99"/>
      <point x="72" y="88"/>
      <point x="54" y="88" type="curve" smooth="yes"/>
      <point x="47" y="88"/>
      <point x="41" y="90"/>
      <point x="34" y="93" type="curve"/>
      <point x="22" y="15" type="line"/>
      <point x="41" y="4"/>
      <point x="67" y="-4"/>
      <point x="99" y="-4" type="curve" smooth="yes"/>
      <point x="161" y="-4"/>
      <point x="206" y="26"/>
      <point x="206" y="107" type="curve" smooth="yes"/>
      <point x="206" y="181" type="line" smooth="yes"/>
      <point x="206" y="233"/>
      <point x="219" y="256"/>
      <point x="248" y="256" type="curve"/>
      <point x="256" y="316" type="line"/>
      <point x="191" y="354" type="line"/>
      <point x="193" y="390"/>
      <point x="213" y="418"/>
      <point x="260" y="418" type="curve" smooth="yes"/>
      <point x="310" y="418"/>
      <point x="335" y="387"/>
      <point x="335" y="323" type="curve" smooth="yes"/>
      <point x="335" y="-70" type="line"/>
      <point x="352" y="-61" type="line"/>
      <point x="292" y="-18" type="line"/>
      <point x="241" y="-65" type="line"/>
      <point x="223" y="-37"/>
      <point x="196" y="-20"/>
      <point x="153" y="-20" type="curve" smooth="yes"/>
      <point x="96" y="-20"/>
      <point x="50" y="-43"/>
      <point x="50" y="-99" type="curve" smooth="yes"/>
    </contour>
  </outline>
</glyph>
<glyph name="yoYing-thai.less" format="2">
  <advance width="742"/>
  <anchor x="675" y="0" name="bottom"/>
  <anchor x="683" y="505" name="top"/>
  <outline>
    <contour>
      <point x="496" y="-13" type="curve" smooth="yes"/>
      <point x="623" y="-13"/>
      <point x="683" y="53"/>
      <point x="683" y="198" type="curve" smooth="yes"/>
      <point x="683" y="517" type="line"/>
      <point x="553" y="517" type="line"/>
      <point x="553" y="187" type="line" smooth="yes"/>
      <point x="553" y="123"/>
      <point x="529" y="98"/>
      <point x="495" y="98" type="curve" smooth="yes"/>
      <point x="460" y="98"/>
      <point x="436" y="123"/>
      <point x="436" y="187" type="curve" smooth="yes"/>
      <point x="436" y="343" type="line" smooth="yes"/>
      <point x="436" y="469"/>
      <point x="359" y="529"/>
      <point x="243" y="529" type="curve" smooth="yes"/>
      <point x="116" y="529"/>
      <point x="46" y="455"/>
      <point x="46" y="360" type="curve" smooth="yes"/>
      <point x="46" y="336" type="line"/>
      <point x="132" y="298" type="line"/>
      <point x="131" y="294" type="line"/>
      <point x="81" y="277"/>
      <point x="53" y="247"/>
      <point x="53" y="173" type="curve" smooth="yes"/>
      <point x="53" y="110" type="line" smooth="yes"/>
      <point x="53" y="28"/>
      <point x="97" y="-9"/>
      <point x="171" y="-9" type="curve" smooth="yes"/>
      <point x="202" y="-9"/>
      <point x="230" y="-3"/>
      <point x="250" y="9" type="curve"/>
      <point x="238" y="91" type="line"/>
      <point x="230" y="88"/>
      <point x="220" y="86"/>
      <point x="211" y="86" type="curve" smooth="yes"/>
      <point x="189" y="86"/>
      <point x="179" y="97"/>
      <point x="179" y="124" type="curve" smooth="yes"/>
      <point x="179" y="184" type="line" smooth="yes"/>
      <point x="179" y="236"/>
      <point x="198" y="255"/>
      <point x="237" y="256" type="curve"/>
      <point x="245" y="316" type="line"/>
      <point x="180" y="357" type="line"/>
      <point x="183" y="399"/>
      <point x="205" y="420"/>
      <point x="243" y="420" type="curve" smooth="yes"/>
      <point x="283" y="420"/>
      <point x="309" y="397"/>
      <point x="309" y="330" type="curve" smooth="yes"/>
      <point x="309" y="198" type="line" smooth="yes"/>
      <point x="309" y="53"/>
      <point x="368" y="-13"/>
    </contour>
  </outline>
</glyph>
